<svg xmlns="http://www.w3.org/2000/svg" xmlns:xlink="http://www.w3.org/1999/xlink" preserveAspectRatio="xMidYMid meet" width="512" height="677" viewBox="0 0 512 677" style="width:100%;height:100%"><defs><animateTransform repeatCount="indefinite" dur="1s" begin="0s" xlink:href="#_R_G_L_8_G" fill="freeze" attributeName="transform" from="18" to="18" type="rotate" additive="sum" keyTimes="0;0.2333333;0.5;0.7333333;1" values="18;-21;18;-21;18" keySplines="0.333 0 0 1;0.996 0 0.369 1;0.722 0 0.024 1;1 0 0.667 1" calcMode="spline"/><animateTransform repeatCount="indefinite" dur="1s" begin="0s" xlink:href="#_R_G_L_8_G" fill="freeze" attributeName="transform" from="-331 -438.5" to="-331 -438.5" type="translate" additive="sum" keyTimes="0;1" values="-331 -438.5;-331 -438.5" keySplines="0 0 1 1" calcMode="spline"/><animateTransform repeatCount="indefinite" dur="1s" begin="0s" xlink:href="#_R_G_L_6_G" fill="freeze" attributeName="transform" from="0" to="0" type="rotate" additive="sum" keyTimes="0;0.5;1" values="0;17;0" keySplines="0.297 0 0.351 1;0.674 0 0.815 1" calcMode="spline"/><animateTransform repeatCount="indefinite" dur="1s" begin="0s" xlink:href="#_R_G_L_6_G" fill="freeze" attributeName="transform" from="-204 -456.5" to="-204 -456.5" type="translate" additive="sum" keyTimes="0;1" values="-204 -456.5;-204 -456.5" keySplines="0 0 1 1" calcMode="spline"/><animateTransform repeatCount="indefinite" dur="1s" begin="0s" xlink:href="#_R_G_L_5_G" fill="freeze" attributeName="transform" from="0" to="0" type="rotate" additive="sum" keyTimes="0;0.5;1" values="0;-17;0" keySplines="0.533 0 0.351 1;0.661 0 0.507 1" calcMode="spline"/><animateTransform repeatCount="indefinite" dur="1s" begin="0s" xlink:href="#_R_G_L_5_G" fill="freeze" attributeName="transform" from="-295 -458" to="-295 -458" type="translate" additive="sum" keyTimes="0;1" values="-295 -458;-295 -458" keySplines="0 0 1 1" calcMode="spline"/><animateTransform repeatCount="indefinite" dur="1s" begin="0s" xlink:href="#_R_G_L_4_G" fill="freeze" attributeName="transform" from="5" to="5" type="rotate" additive="sum" keyTimes="0;0.5;1" values="5;-1;5" keySplines="0.167 0 0.583 1;0.417 0 0.833 1" calcMode="spline"/><animateTransform repeatCount="indefinite" dur="1s" begin="0s" xlink:href="#_R_G_L_4_G" fill="freeze" attributeName="transform" from="-181.5 -364" to="-181.5 -364" type="translate" additive="sum" keyTimes="0;1" values="-181.5 -364;-181.5 -364" keySplines="0 0 1 1" calcMode="spline"/><animateTransform repeatCount="indefinite" dur="1s" begin="0s" xlink:href="#_R_G_L_3_G" fill="freeze" attributeName="transform" from="-5" to="-5" type="rotate" additive="sum" keyTimes="0;0.5;1" values="-5;1;-5" keySplines="0.333 0 0.667 1;0.333 0 0.667 1" calcMode="spline"/><animateTransform repeatCount="indefinite" dur="1s" begin="0s" xlink:href="#_R_G_L_3_G" fill="freeze" attributeName="transform" from="-319 -367" to="-319 -367" type="translate" additive="sum" keyTimes="0;1" values="-319 -367;-319 -367" keySplines="0 0 1 1" calcMode="spline"/><animateTransform repeatCount="indefinite" dur="1s" begin="0s" xlink:href="#_R_G_L_2_G" fill="freeze" attributeName="transform" from="20" to="20" type="rotate" additive="sum" keyTimes="0;0.5;1" values="20;-10;20" keySplines="0.333 0 0.798 1;0.247 0 0.667 1" calcMode="spline"/><animateTransform repeatCount="indefinite" dur="1s" begin="0s" xlink:href="#_R_G_L_2_G" fill="freeze" attributeName="transform" from="-248.281 -369.206" to="-248.281 -369.206" type="translate" additive="sum" keyTimes="0;1" values="-248.281 -369.206;-248.281 -369.206" keySplines="0 0 1 1" calcMode="spline"/><animateMotion repeatCount="indefinite" dur="1s" begin="0s" xlink:href="#_R_G_L_1_G_D_0_P_0_G_0_T_0" fill="freeze" keyTimes="0;0.5;1" path="M158.94 155.92 C158.94,155.92 158.94,167.92 158.94,167.92 C158.94,167.92 158.94,155.92 158.94,155.92 " keyPoints="0;0.5;1" keySplines="0.333 0 0.667 1;0.333 0 0.667 1" calcMode="spline"/><animateMotion repeatCount="indefinite" dur="1s" begin="0s" xlink:href="#_R_G_L_1_G_D_1_P_0_G_0_T_0" fill="freeze" keyTimes="0;0.5;1" path="M158.94 155.92 C158.94,155.92 158.94,167.92 158.94,167.92 C158.94,167.92 158.94,155.92 158.94,155.92 " keyPoints="0;0.5;1" keySplines="0.333 0 0.667 1;0.333 0 0.667 1" calcMode="spline"/><animateMotion repeatCount="indefinite" dur="1s" begin="0s" xlink:href="#_R_G_L_1_G_D_2_P_0_G_0_T_0" fill="freeze" keyTimes="0;0.5;1" path="M131.68 158.82 C131.68,158.82 131.68,170.82 131.68,170.82 C131.68,170.82 131.68,158.82 131.68,158.82 " keyPoints="0;0.5;1" keySplines="0.333 0 0.667 1;0.333 0 0.667 1" calcMode="spline"/><animateMotion repeatCount="indefinite" dur="1s" begin="0s" xlink:href="#_R_G_L_1_G_D_3_P_0_G_0_T_0" fill="freeze" keyTimes="0;0.5;1" path="M139.99 128.02 C139.99,128.02 139.99,140.02 139.99,140.02 C139.99,140.02 139.99,128.02 139.99,128.02 " keyPoints="0;0.5;1" keySplines="0.333 0 0.667 1;0.333 0 0.667 1" calcMode="spline"/><animateMotion repeatCount="indefinite" dur="1s" begin="0s" xlink:href="#_R_G_L_1_G_D_4_P_0_G_0_T_0" fill="freeze" keyTimes="0;0.5;1" path="M341.34 155.92 C341.34,155.92 341.34,167.92 341.34,167.92 C341.34,167.92 341.34,155.92 341.34,155.92 " keyPoints="0;0.5;1" keySplines="0.333 0 0.667 1;0.333 0 0.667 1" calcMode="spline"/><animateMotion repeatCount="indefinite" dur="1s" begin="0s" xlink:href="#_R_G_L_1_G_D_5_P_0_G_0_T_0" fill="freeze" keyTimes="0;0.5;1" path="M341.34 155.92 C341.34,155.92 341.34,167.92 341.34,167.92 C341.34,167.92 341.34,155.92 341.34,155.92 " keyPoints="0;0.5;1" keySplines="0.333 0 0.667 1;0.333 0 0.667 1" calcMode="spline"/><animateMotion repeatCount="indefinite" dur="1s" begin="0s" xlink:href="#_R_G_L_1_G_D_6_P_0_G_0_T_0" fill="freeze" keyTimes="0;0.5;1" path="M368.6 158.82 C368.6,158.82 368.6,170.82 368.6,170.82 C368.6,170.82 368.6,158.82 368.6,158.82 " keyPoints="0;0.5;1" keySplines="0.333 0 0.667 1;0.333 0 0.667 1" calcMode="spline"/><animateMotion repeatCount="indefinite" dur="1s" begin="0s" xlink:href="#_R_G_L_1_G_D_7_P_0_G_0_T_0" fill="freeze" keyTimes="0;0.5;1" path="M360.29 128.02 C360.29,128.02 360.29,140.02 360.29,140.02 C360.29,140.02 360.29,128.02 360.29,128.02 " keyPoints="0;0.5;1" keySplines="0.333 0 0.667 1;0.333 0 0.667 1" calcMode="spline"/><animate repeatCount="indefinite" dur="1s" begin="0s" xlink:href="#_R_G_L_1_G_D_10_P_0" fill="freeze" attributeName="d" attributeType="XML" from="M118.02 315.53 C118.02,315.53 123.63,313.12 125.12,315.03 C132.5,324.5 153.48,363.87 252.01,361.41 C252.01,361.41 346.01,361.98 379.17,319.22 C379.17,319.22 385.96,305.01 385.96,305.01 C385.96,305.01 391.55,278.83 391.55,278.83 C391.55,278.83 394.01,308.5 381.76,325.42 C369.51,342.35 351.25,367.55 244.58,367.55 C137.91,367.55 121.43,328.53 114.41,312.6 C107.59,297.11 118.02,315.53 118.02,315.53z " to="M118.02 315.53 C118.02,315.53 123.63,313.12 125.12,315.03 C132.5,324.5 153.48,363.87 252.01,361.41 C252.01,361.41 346.01,361.98 379.17,319.22 C379.17,319.22 385.96,305.01 385.96,305.01 C385.96,305.01 391.55,278.83 391.55,278.83 C391.55,278.83 394.01,308.5 381.76,325.42 C369.51,342.35 351.25,367.55 244.58,367.55 C137.91,367.55 121.43,328.53 114.41,312.6 C107.59,297.11 118.02,315.53 118.02,315.53z " keyTimes="0;0.5;1" values="M118.02 315.53 C118.02,315.53 123.63,313.12 125.12,315.03 C132.5,324.5 153.48,363.87 252.01,361.41 C252.01,361.41 346.01,361.98 379.17,319.22 C379.17,319.22 385.96,305.01 385.96,305.01 C385.96,305.01 391.55,278.83 391.55,278.83 C391.55,278.83 394.01,308.5 381.76,325.42 C369.51,342.35 351.25,367.55 244.58,367.55 C137.91,367.55 121.43,328.53 114.41,312.6 C107.59,297.11 118.02,315.53 118.02,315.53z ;M110.02 276.03 C110.02,276.03 132.25,297.99 134.12,299.53 C135.98,301.07 150.98,338.37 249.51,335.91 C249.51,335.91 334.01,342.98 367.17,300.22 C367.17,300.22 383.46,280.01 383.46,280.01 C383.46,280.01 391.55,278.83 391.55,278.83 C391.55,278.83 394.01,308.5 381.76,325.42 C369.51,342.35 351.25,367.55 244.58,367.55 C137.91,367.55 121.43,328.53 114.41,312.6 C107.59,297.11 110.02,276.03 110.02,276.03z ;M118.02 315.53 C118.02,315.53 123.63,313.12 125.12,315.03 C132.5,324.5 153.48,363.87 252.01,361.41 C252.01,361.41 346.01,361.98 379.17,319.22 C379.17,319.22 385.96,305.01 385.96,305.01 C385.96,305.01 391.55,278.83 391.55,278.83 C391.55,278.83 394.01,308.5 381.76,325.42 C369.51,342.35 351.25,367.55 244.58,367.55 C137.91,367.55 121.43,328.53 114.41,312.6 C107.59,297.11 118.02,315.53 118.02,315.53z " keySplines="0.167 0 0.667 1;0.333 0 0.833 1" calcMode="spline"/><animateMotion repeatCount="indefinite" dur="1s" begin="0s" xlink:href="#_R_G_L_1_G_D_11_P_0_G_0_T_0" fill="freeze" keyTimes="0;0.5;1" path="M252.86 135.7 C252.86,135.7 252.86,110.7 252.86,110.7 C252.86,110.7 252.86,135.7 252.86,135.7 " keyPoints="0;0.5;1" keySplines="0.333 0 0.667 1;0.333 0 0.667 1" calcMode="spline"/><animateMotion repeatCount="indefinite" dur="1s" begin="0s" xlink:href="#_R_G_L_1_G_D_12_P_0_G_0_T_0" fill="freeze" keyTimes="0;0.5;1" path="M252.86 135.7 C252.86,135.7 252.86,110.7 252.86,110.7 C252.86,110.7 252.86,135.7 252.86,135.7 " keyPoints="0;0.5;1" keySplines="0.333 0 0.667 1;0.333 0 0.667 1" calcMode="spline"/><animateMotion repeatCount="indefinite" dur="1s" begin="0s" xlink:href="#_R_G_L_1_G_D_13_P_0_G_0_T_0" fill="freeze" keyTimes="0;0.5;1" path="M252.62 180.07 C252.62,180.07 252.62,155.07 252.62,155.07 C252.62,155.07 252.62,180.07 252.62,180.07 " keyPoints="0;0.5;1" keySplines="0.333 0 0.667 1;0.333 0 0.667 1" calcMode="spline"/><animateMotion repeatCount="indefinite" dur="1s" begin="0s" xlink:href="#_R_G_L_1_G_D_14_P_0_G_0_T_0" fill="freeze" keyTimes="0;0.5;1" path="M252.62 180.07 C252.62,180.07 252.62,155.07 252.62,155.07 C252.62,155.07 252.62,180.07 252.62,180.07 " keyPoints="0;0.5;1" keySplines="0.333 0 0.667 1;0.333 0 0.667 1" calcMode="spline"/><animateMotion repeatCount="indefinite" dur="1s" begin="0s" xlink:href="#_R_G_L_1_G_D_15_P_0_G_0_T_0" fill="freeze" keyTimes="0;0.5;1" path="M250.61 103.12 C250.61,103.12 250.61,78.12 250.61,78.12 C250.61,78.12 250.61,103.12 250.61,103.12 " keyPoints="0;0.5;1" keySplines="0.333 0 0.667 1;0.333 0 0.667 1" calcMode="spline"/><animateMotion repeatCount="indefinite" dur="1s" begin="0s" xlink:href="#_R_G_L_1_G_D_16_P_0_G_0_T_0" fill="freeze" keyTimes="0;0.5;1" path="M250.61 103.12 C250.61,103.12 250.61,78.12 250.61,78.12 C250.61,78.12 250.61,103.12 250.61,103.12 " keyPoints="0;0.5;1" keySplines="0.333 0 0.667 1;0.333 0 0.667 1" calcMode="spline"/><animateMotion repeatCount="indefinite" dur="1s" begin="0s" xlink:href="#_R_G_L_1_G_D_17_P_0_G_0_T_0" fill="freeze" keyTimes="0;0.5;1" path="M251.27 124.87 C251.27,124.87 251.27,99.87 251.27,99.87 C251.27,99.87 251.27,124.87 251.27,124.87 " keyPoints="0;0.5;1" keySplines="0.333 0 0.667 1;0.333 0 0.667 1" calcMode="spline"/><animateMotion repeatCount="indefinite" dur="1s" begin="0s" xlink:href="#_R_G_L_1_G_D_18_P_0_G_0_T_0" fill="freeze" keyTimes="0;0.5;1" path="M251.27 124.87 C251.27,124.87 251.27,99.87 251.27,99.87 C251.27,99.87 251.27,124.87 251.27,124.87 " keyPoints="0;0.5;1" keySplines="0.333 0 0.667 1;0.333 0 0.667 1" calcMode="spline"/><animateMotion repeatCount="indefinite" dur="1s" begin="0s" xlink:href="#_R_G_L_1_G_D_19_P_0_G_0_T_0" fill="freeze" keyTimes="0;0.5;1" path="M251.26 151.84 C251.26,151.84 251.26,126.84 251.26,126.84 C251.26,126.84 251.26,151.84 251.26,151.84 " keyPoints="0;0.5;1" keySplines="0.333 0 0.667 1;0.333 0 0.667 1" calcMode="spline"/><animateMotion repeatCount="indefinite" dur="1s" begin="0s" xlink:href="#_R_G_L_1_G_D_20_P_0_G_0_T_0" fill="freeze" keyTimes="0;0.5;1" path="M251.26 151.84 C251.26,151.84 251.26,126.84 251.26,126.84 C251.26,126.84 251.26,151.84 251.26,151.84 " keyPoints="0;0.5;1" keySplines="0.333 0 0.667 1;0.333 0 0.667 1" calcMode="spline"/><animateMotion repeatCount="indefinite" dur="1s" begin="0s" xlink:href="#_R_G_L_1_G_D_21_P_0_G_0_T_0" fill="freeze" keyTimes="0;0.5;1" path="M189.69 277.35 C189.69,277.35 189.69,252.35 189.69,252.35 C189.69,252.35 189.69,277.35 189.69,277.35 " keyPoints="0;0.5;1" keySplines="0.333 0 0.667 1;0.333 0 0.667 1" calcMode="spline"/><animateMotion repeatCount="indefinite" dur="1s" begin="0s" xlink:href="#_R_G_L_1_G_D_21_P_0_G_0_T_0" fill="freeze" keyTimes="0;0.5;1" path="M189.69 277.35 C189.69,277.35 189.69,252.35 189.69,252.35 C189.69,252.35 189.69,277.35 189.69,277.35 " keyPoints="0;0.5;1" keySplines="0.333 0 0.667 1;0.333 0 0.667 1" calcMode="spline"/><animateMotion repeatCount="indefinite" dur="1s" begin="0s" xlink:href="#_R_G_L_1_G_D_21_P_0_G_0_T_0" fill="freeze" keyTimes="0;0.5;1" path="M189.69 277.35 C189.69,277.35 189.69,252.35 189.69,252.35 C189.69,252.35 189.69,277.35 189.69,277.35 " keyPoints="0;0.5;1" keySplines="0.333 0 0.667 1;0.333 0 0.667 1" calcMode="spline"/><animateMotion repeatCount="indefinite" dur="1s" begin="0s" xlink:href="#_R_G_L_1_G_D_22_P_0_G_0_T_0" fill="freeze" keyTimes="0;0.5;1" path="M312.31 276.88 C312.31,276.88 312.31,251.88 312.31,251.88 C312.31,251.88 312.31,276.88 312.31,276.88 " keyPoints="0;0.5;1" keySplines="0.333 0 0.667 1;0.333 0 0.667 1" calcMode="spline"/><animateMotion repeatCount="indefinite" dur="1s" begin="0s" xlink:href="#_R_G_L_1_G_D_22_P_0_G_0_T_0" fill="freeze" keyTimes="0;0.5;1" path="M312.31 276.88 C312.31,276.88 312.31,251.88 312.31,251.88 C312.31,251.88 312.31,276.88 312.31,276.88 " keyPoints="0;0.5;1" keySplines="0.333 0 0.667 1;0.333 0 0.667 1" calcMode="spline"/><animateMotion repeatCount="indefinite" dur="1s" begin="0s" xlink:href="#_R_G_L_1_G_D_22_P_0_G_0_T_0" fill="freeze" keyTimes="0;0.5;1" path="M312.31 276.88 C312.31,276.88 312.31,251.88 312.31,251.88 C312.31,251.88 312.31,276.88 312.31,276.88 " keyPoints="0;0.5;1" keySplines="0.333 0 0.667 1;0.333 0 0.667 1" calcMode="spline"/><animateMotion repeatCount="indefinite" dur="1s" begin="0s" xlink:href="#_R_G_L_1_G_D_23_P_0_G_0_T_0" fill="freeze" keyTimes="0;0.5;1" path="M289.29 299.67 C289.29,299.67 289.29,274.67 289.29,274.67 C289.29,274.67 289.29,299.67 289.29,299.67 " keyPoints="0;0.5;1" keySplines="0.333 0 0.667 1;0.333 0 0.667 1" calcMode="spline"/><animateMotion repeatCount="indefinite" dur="1s" begin="0s" xlink:href="#_R_G_L_1_G_D_24_P_0_G_0_T_0" fill="freeze" keyTimes="0;0.5;1" path="M131.57 303.93 C131.57,303.93 128.57,285.93 128.57,285.93 C128.57,285.93 131.57,303.93 131.57,303.93 " keyPoints="0;0.5;1" keySplines="0.333 0 0.667 1;0.333 0 0.667 1" calcMode="spline"/><animateMotion repeatCount="indefinite" dur="1s" begin="0s" xlink:href="#_R_G_L_1_G_D_25_P_0_G_0_T_0" fill="freeze" keyTimes="0;0.5;1" path="M372.23 304.93 C372.23,304.93 372.23,285.93 372.23,285.93 C372.23,285.93 372.23,304.93 372.23,304.93 " keyPoints="0;0.5;1" keySplines="0.333 0 0.667 1;0.333 0 0.667 1" calcMode="spline"/><animateMotion repeatCount="indefinite" dur="1s" begin="0s" xlink:href="#_R_G_L_1_G_D_26_P_0_G_0_T_0" fill="freeze" keyTimes="0;0.5;1" path="M337.96 313.85 C337.96,313.85 337.96,288.85 337.96,288.85 C337.96,288.85 337.96,313.85 337.96,313.85 " keyPoints="0;0.5;1" keySplines="0.333 0 0.667 1;0.333 0 0.667 1" calcMode="spline"/><animateMotion repeatCount="indefinite" dur="1s" begin="0s" xlink:href="#_R_G_L_1_G_D_27_P_0_G_0_T_0" fill="freeze" keyTimes="0;0.5;1" path="M387.27 303.83 C387.27,303.83 387.27,278.83 387.27,278.83 C387.27,278.83 387.27,303.83 387.27,303.83 " keyPoints="0;0.5;1" keySplines="0.333 0 0.667 1;0.333 0 0.667 1" calcMode="spline"/><animateMotion repeatCount="indefinite" dur="1s" begin="0s" xlink:href="#_R_G_L_1_G_D_28_P_0_G_0_T_0" fill="freeze" keyTimes="0;0.5;1" path="M401.82 323.09 C401.82,323.09 404.82,298.09 404.82,298.09 C404.82,298.09 401.82,323.09 401.82,323.09 " keyPoints="0;0.5;1" keySplines="0.333 0 0.667 1;0.333 0 0.667 1" calcMode="spline"/><animateMotion repeatCount="indefinite" dur="1s" begin="0s" xlink:href="#_R_G_L_1_G_D_29_P_0_G_0_T_0" fill="freeze" keyTimes="0;0.5;1" path="M387.86 341.96 C387.86,341.96 400.36,316.96 400.36,316.96 C400.36,316.96 387.86,341.96 387.86,341.96 " keyPoints="0;0.5;1" keySplines="0.333 0 0.667 1;0.333 0 0.667 1" calcMode="spline"/><animateMotion repeatCount="indefinite" dur="1s" begin="0s" xlink:href="#_R_G_L_1_G_D_30_P_0_G_0_T_0" fill="freeze" keyTimes="0;0.5;1" path="M160.84 312.4 C160.84,312.4 160.84,287.4 160.84,287.4 C160.84,287.4 160.84,312.4 160.84,312.4 " keyPoints="0;0.5;1" keySplines="0.333 0 0.667 1;0.333 0 0.667 1" calcMode="spline"/><animateMotion repeatCount="indefinite" dur="1s" begin="0s" xlink:href="#_R_G_L_1_G_D_31_P_0_G_0_T_0" fill="freeze" keyTimes="0;0.5;1" path="M111.53 302.38 C111.53,302.38 111.53,277.38 111.53,277.38 C111.53,277.38 111.53,302.38 111.53,302.38 " keyPoints="0;0.5;1" keySplines="0.333 0 0.667 1;0.333 0 0.667 1" calcMode="spline"/><animateMotion repeatCount="indefinite" dur="1s" begin="0s" xlink:href="#_R_G_L_1_G_D_32_P_0_G_0_T_0" fill="freeze" keyTimes="0;0.5;1" path="M98.48 321.63 C98.48,321.63 93.98,296.63 93.98,296.63 C93.98,296.63 98.48,321.63 98.48,321.63 " keyPoints="0;0.5;1" keySplines="0.333 0 0.667 1;0.333 0 0.667 1" calcMode="spline"/><animateMotion repeatCount="indefinite" dur="1s" begin="0s" xlink:href="#_R_G_L_1_G_D_33_P_0_G_0_T_0" fill="freeze" keyTimes="0;0.5;1" path="M110.44 339.51 C110.44,339.51 98.44,315.51 98.44,315.51 C98.44,315.51 110.44,339.51 110.44,339.51 " keyPoints="0;0.5;1" keySplines="0.333 0 0.667 1;0.333 0 0.667 1" calcMode="spline"/><animateMotion repeatCount="indefinite" dur="1s" begin="0s" xlink:href="#_R_G_L_1_G_D_34_P_0_G_0_T_0" fill="freeze" keyTimes="0;0.5;1" path="M250.87 290.52 C250.87,290.52 250.87,265.52 250.87,265.52 C250.87,265.52 250.87,290.52 250.87,290.52 " keyPoints="0;0.5;1" keySplines="0.333 0 0.667 1;0.333 0 0.667 1" calcMode="spline"/><animateMotion repeatCount="indefinite" dur="1s" begin="0s" xlink:href="#_R_G_L_1_G_D_35_P_0_G_0_T_0" fill="freeze" keyTimes="0;0.5;1" path="M250.87 290.52 C250.87,290.52 250.87,265.52 250.87,265.52 C250.87,265.52 250.87,290.52 250.87,290.52 " keyPoints="0;0.5;1" keySplines="0.333 0 0.667 1;0.333 0 0.667 1" calcMode="spline"/><animateMotion repeatCount="indefinite" dur="1s" begin="0s" xlink:href="#_R_G_L_1_G_D_36_P_0_G_0_T_0" fill="freeze" keyTimes="0;0.5;1" path="M251.29 316.07 C251.29,316.07 251.29,291.07 251.29,291.07 C251.29,291.07 251.29,316.07 251.29,316.07 " keyPoints="0;0.5;1" keySplines="0.333 0 0.667 1;0.333 0 0.667 1" calcMode="spline"/><animateMotion repeatCount="indefinite" dur="1s" begin="0s" xlink:href="#_R_G_L_1_G_D_37_P_0_G_0_T_0" fill="freeze" keyTimes="0;0.5;1" path="M251.29 316.07 C251.29,316.07 251.29,291.07 251.29,291.07 C251.29,291.07 251.29,316.07 251.29,316.07 " keyPoints="0;0.5;1" keySplines="0.333 0 0.667 1;0.333 0 0.667 1" calcMode="spline"/><animateMotion repeatCount="indefinite" dur="1s" begin="0s" xlink:href="#_R_G_L_1_G_D_38_P_0_G_0_T_0" fill="freeze" keyTimes="0;0.5;1" path="M251 321.21 C251,321.21 251,296.21 251,296.21 C251,296.21 251,321.21 251,321.21 " keyPoints="0;0.5;1" keySplines="0.333 0 0.667 1;0.333 0 0.667 1" calcMode="spline"/><animateMotion repeatCount="indefinite" dur="1s" begin="0s" xlink:href="#_R_G_L_1_G_D_39_P_0_G_0_T_0" fill="freeze" keyTimes="0;0.5;1" path="M250.83 324.55 C250.83,324.55 250.83,299.55 250.83,299.55 C250.83,299.55 250.83,324.55 250.83,324.55 " keyPoints="0;0.5;1" keySplines="0.333 0 0.667 1;0.333 0 0.667 1" calcMode="spline"/><animateMotion repeatCount="indefinite" dur="1s" begin="0s" xlink:href="#_R_G_L_1_G_D_40_P_0_G_0_T_0" fill="freeze" keyTimes="0;0.5;1" path="M250.28 305.17 C250.28,305.17 250.28,280.17 250.28,280.17 C250.28,280.17 250.28,305.17 250.28,305.17 " keyPoints="0;0.5;1" keySplines="0.333 0 0.667 1;0.333 0 0.667 1" calcMode="spline"/><animateMotion repeatCount="indefinite" dur="1s" begin="0s" xlink:href="#_R_G_L_1_G_D_41_P_0_G_0_T_0" fill="freeze" keyTimes="0;0.5;1" path="M250.88 306.01 C250.88,306.01 250.88,281.01 250.88,281.01 C250.88,281.01 250.88,306.01 250.88,306.01 " keyPoints="0;0.5;1" keySplines="0.333 0 0.667 1;0.333 0 0.667 1" calcMode="spline"/><animateMotion repeatCount="indefinite" dur="1s" begin="0s" xlink:href="#_R_G_L_1_G_D_42_P_0_G_0_T_0" fill="freeze" keyTimes="0;0.5;1" path="M251.05 299.8 C251.05,299.8 251.05,274.8 251.05,274.8 C251.05,274.8 251.05,299.8 251.05,299.8 " keyPoints="0;0.5;1" keySplines="0.333 0 0.667 1;0.333 0 0.667 1" calcMode="spline"/><animateMotion repeatCount="indefinite" dur="1s" begin="0s" xlink:href="#_R_G_L_1_G_D_43_P_0_G_0_T_0" fill="freeze" keyTimes="0;0.5;1" path="M251.05 299.8 C251.05,299.8 251.05,274.8 251.05,274.8 C251.05,274.8 251.05,299.8 251.05,299.8 " keyPoints="0;0.5;1" keySplines="0.333 0 0.667 1;0.333 0 0.667 1" calcMode="spline"/><animate repeatCount="indefinite" dur="1s" begin="0s" xlink:href="#_R_G_L_1_G_D_44_P_0" fill="freeze" attributeName="d" attributeType="XML" from="M140 196.07 C140,196.07 176.25,229 203.31,205.7 C224.35,187.58 200.35,146.69 200.35,146.69 C200.35,146.69 166.07,159.82 140,196.07z " to="M140 196.07 C140,196.07 176.25,229 203.31,205.7 C224.35,187.58 200.35,146.69 200.35,146.69 C200.35,146.69 166.07,159.82 140,196.07z " keyTimes="0;0.5;1" values="M140 196.07 C140,196.07 176.25,229 203.31,205.7 C224.35,187.58 200.35,146.69 200.35,146.69 C200.35,146.69 166.07,159.82 140,196.07z ;M140 196.07 C140,196.07 178.74,210.85 197.31,190.2 C215.87,169.55 200.35,146.69 200.35,146.69 C200.35,146.69 166.07,159.82 140,196.07z ;M140 196.07 C140,196.07 176.25,229 203.31,205.7 C224.35,187.58 200.35,146.69 200.35,146.69 C200.35,146.69 166.07,159.82 140,196.07z " keySplines="0.333 0 0.667 1;0.333 0 0.667 1" calcMode="spline"/><animate repeatCount="indefinite" dur="1s" begin="0s" xlink:href="#_R_G_L_1_G_D_45_P_0" fill="freeze" attributeName="d" attributeType="XML" from="M195.08 191.69 C206,180.5 183.9,157.5 182.12,156.38 C174.75,161.07 160.87,171.89 151.93,180.64 C157.67,186.05 178.22,208.98 195.08,191.69z " to="M195.08 191.69 C206,180.5 183.9,157.5 182.12,156.38 C174.75,161.07 160.87,171.89 151.93,180.64 C157.67,186.05 178.22,208.98 195.08,191.69z " keyTimes="0;0.5;1" values="M195.08 191.69 C206,180.5 183.9,157.5 182.12,156.38 C174.75,161.07 160.87,171.89 151.93,180.64 C157.67,186.05 178.22,208.98 195.08,191.69z ;M185.08 173.94 C191.16,162.94 183.9,157.5 182.12,156.38 C174.75,161.07 165.87,167.64 156.93,176.39 C162.67,181.8 178.91,185.13 185.08,173.94z ;M195.08 191.69 C206,180.5 183.9,157.5 182.12,156.38 C174.75,161.07 160.87,171.89 151.93,180.64 C157.67,186.05 178.22,208.98 195.08,191.69z " keySplines="0.333 0 0.667 1;0.333 0 0.667 1" calcMode="spline"/><animate repeatCount="indefinite" dur="1s" begin="0s" xlink:href="#_R_G_L_1_G_D_46_P_0" fill="freeze" attributeName="opacity" from="1" to="0" keyTimes="0;0.2;0.2333333;1" values="1;1;0;0" keySplines="0.333 0 0.667 1;0.333 0 0.667 1;0 0 0 0" calcMode="spline"/><animate repeatCount="indefinite" dur="1s" begin="0s" xlink:href="#_R_G_L_1_G_D_46_P_0" fill="freeze" attributeName="d" attributeType="XML" from="M1.78 -4.78 C-28.22,-4.78 -38.66,24.56 -38.66,24.56 C-38.66,24.56 -23.02,3.56 3.11,3.89 C29.24,4.21 38.66,34.78 38.66,34.78 C38.66,34.78 31.78,-4.78 1.78,-4.78z " to="M1.78 -19.78 C-28.22,-19.78 -38.66,9.56 -38.66,9.56 C-38.66,9.56 -23.02,-11.44 3.11,-11.11 C29.24,-10.79 38.66,19.78 38.66,19.78 C38.66,19.78 31.78,-19.78 1.78,-19.78z " keyTimes="0;0.1;0.2;0.5;1" values="M1.78 -4.78 C-28.22,-4.78 -38.66,24.56 -38.66,24.56 C-38.66,24.56 -23.02,3.56 3.11,3.89 C29.24,4.21 38.66,34.78 38.66,34.78 C38.66,34.78 31.78,-4.78 1.78,-4.78z ;M1.78 0.22 C-28.22,0.22 -38.66,29.56 -38.66,29.56 C-38.66,29.56 -37.64,92.36 -11.89,87.89 C41.22,78.67 38.66,39.78 38.66,39.78 C38.66,39.78 31.78,0.22 1.78,0.22z ;M1.78 -4.78 C-28.22,-4.78 -38.66,24.56 -38.66,24.56 C-38.66,24.56 -23.02,3.56 3.11,3.89 C29.24,4.21 38.66,34.78 38.66,34.78 C38.66,34.78 31.78,-4.78 1.78,-4.78z ;M1.78 -19.78 C-28.22,-19.78 -38.66,9.56 -38.66,9.56 C-38.66,9.56 -23.02,-11.44 3.11,-11.11 C29.24,-10.79 38.66,19.78 38.66,19.78 C38.66,19.78 31.78,-19.78 1.78,-19.78z ;M1.78 -19.78 C-28.22,-19.78 -38.66,9.56 -38.66,9.56 C-38.66,9.56 -23.02,-11.44 3.11,-11.11 C29.24,-10.79 38.66,19.78 38.66,19.78 C38.66,19.78 31.78,-19.78 1.78,-19.78z " keySplines="0.333 0 0.667 1;0.333 0 0.667 1;0.333 0 0.833 1;0 0 0 0" calcMode="spline"/><animate repeatCount="indefinite" dur="1s" begin="0s" xlink:href="#_R_G_L_1_G_D_47_P_0" fill="freeze" attributeName="opacity" from="1" to="0" keyTimes="0;0.2;0.2333333;1" values="1;1;0;0" keySplines="0.333 0 0.667 1;0.333 0 0.667 1;0 0 0 0" calcMode="spline"/><animate repeatCount="indefinite" dur="1s" begin="0s" xlink:href="#_R_G_L_1_G_D_47_P_0" fill="freeze" attributeName="d" attributeType="XML" from="M9.36 -5.89 C-19.31,-7.67 -38.04,24.78 -38.04,24.78 C-38.04,24.78 -19.74,7.89 5.37,5.22 C30.48,2.56 37.2,37.67 37.2,37.67 C37.2,37.67 38.04,-4.11 9.36,-5.89z " to="M9.36 -20.89 C-19.31,-22.67 -38.04,9.78 -38.04,9.78 C-38.04,9.78 -19.74,-7.11 5.37,-9.78 C30.48,-12.44 37.2,22.67 37.2,22.67 C37.2,22.67 38.04,-19.11 9.36,-20.89z " keyTimes="0;0.1;0.2;0.5;1" values="M9.36 -5.89 C-19.31,-7.67 -38.04,24.78 -38.04,24.78 C-38.04,24.78 -19.74,7.89 5.37,5.22 C30.48,2.56 37.2,37.67 37.2,37.67 C37.2,37.67 38.04,-4.11 9.36,-5.89z ;M9.36 -0.89 C-19.31,-2.67 -38.04,29.78 -38.04,29.78 C-38.04,29.78 -45.68,85.44 1.87,89.72 C27.02,91.98 37.2,42.67 37.2,42.67 C37.2,42.67 38.04,0.89 9.36,-0.89z ;M9.36 -5.89 C-19.31,-7.67 -38.04,24.78 -38.04,24.78 C-38.04,24.78 -19.74,7.89 5.37,5.22 C30.48,2.56 37.2,37.67 37.2,37.67 C37.2,37.67 38.04,-4.11 9.36,-5.89z ;M9.36 -20.89 C-19.31,-22.67 -38.04,9.78 -38.04,9.78 C-38.04,9.78 -19.74,-7.11 5.37,-9.78 C30.48,-12.44 37.2,22.67 37.2,22.67 C37.2,22.67 38.04,-19.11 9.36,-20.89z ;M9.36 -20.89 C-19.31,-22.67 -38.04,9.78 -38.04,9.78 C-38.04,9.78 -19.74,-7.11 5.37,-9.78 C30.48,-12.44 37.2,22.67 37.2,22.67 C37.2,22.67 38.04,-19.11 9.36,-20.89z " keySplines="0.333 0 0.833 0.833;0.167 0.167 0.667 1;0.333 0 0.833 1;0 0 0 0" calcMode="spline"/><animateTransform repeatCount="indefinite" dur="1s" begin="0s" xlink:href="#_R_G_L_0_G" fill="freeze" attributeName="transform" from="2.3000000000000003 2.3000000000000003" to="2.3000000000000003 2.3000000000000003" type="scale" additive="sum" keyTimes="0;0.5;1" values="2.3000000000000003 2.3000000000000003;2.36 2.36;2.3000000000000003 2.3000000000000003" keySplines="0.167 0.167 0.833 0.833;0.167 0.167 0.833 0.833" calcMode="spline"/><animate attributeType="XML" attributeName="opacity" dur="1s" from="0" to="1" xlink:href="#time_group"/></defs><g id="_R_G"><g id="_R_G_L_8_G" transform=" translate(321.5, 433.5)"><path id="_R_G_L_8_G_D_0_P_0" fill="#fa206a" fill-opacity="1" fill-rule="nonzero" d=" M329.27 396.16 C329.27,396.16 359.94,365.4 410.15,369.03 C411.58,369.14 412.61,370.45 412.33,371.86 C410.15,383.06 399.02,427.03 357.13,438.41 C309,451.48 329.27,396.16 329.27,396.16z "/><path id="_R_G_L_8_G_D_1_P_0" stroke="#000342" stroke-linecap="round" stroke-linejoin="round" fill="none" stroke-width="6" stroke-opacity="1" d=" M329.27 396.16 C329.27,396.16 359.94,365.4 410.15,369.03 C411.58,369.14 412.61,370.45 412.33,371.86 C410.15,383.06 399.02,427.03 357.13,438.41 C309,451.48 329.27,396.16 329.27,396.16z "/><path id="_R_G_L_8_G_D_2_P_0" fill="#fa206a" fill-opacity="1" fill-rule="nonzero" d=" M386.05 420.67 C386.05,420.67 374.56,394.14 356.62,387.44 "/><path id="_R_G_L_8_G_D_3_P_0" fill="#000342" fill-opacity="1" fill-rule="nonzero" d=" M383.3 421.86 C382.71,420.24 381.97,418.49 381.22,416.83 C380.84,415.99 380.45,415.15 380.04,414.32 C379.64,413.48 379.22,412.66 378.79,411.84 C377.06,408.57 375.18,405.35 373.03,402.33 C370.87,399.32 368.53,396.41 365.82,393.84 C363.1,391.31 360.06,389.07 356.62,387.44 C360.24,388.6 363.64,390.45 366.78,392.69 C369.9,394.95 372.72,397.62 375.36,400.44 C378,403.27 380.38,406.34 382.62,409.5 C383.19,410.28 383.74,411.08 384.27,411.9 C384.81,412.7 385.33,413.52 385.84,414.35 C386.88,416.02 387.85,417.64 388.81,419.48 C388.81,419.48 383.3,421.86 383.3,421.86z "/><path id="_R_G_L_8_G_D_4_P_0" fill="#fa206a" fill-opacity="1" fill-rule="nonzero" d=" M341.16 386.92 C341.16,386.92 362.94,392.11 365.84,415.86 "/><path id="_R_G_L_8_G_D_5_P_0" fill="#000342" fill-opacity="1" fill-rule="nonzero" d=" M341.86 384.01 C342.9,384.35 343.68,384.68 344.54,385.07 C345.38,385.44 346.18,385.86 346.98,386.28 C347.78,386.7 348.53,387.2 349.31,387.65 C349.31,387.65 351.53,389.17 351.53,389.17 C354.42,391.27 356.97,393.81 359.08,396.64 C359.08,396.64 359.88,397.69 359.88,397.69 C360.12,398.06 360.34,398.44 360.57,398.81 C361.02,399.57 361.52,400.28 361.91,401.07 C361.91,401.07 363.03,403.43 363.03,403.43 C363.23,403.81 363.38,404.22 363.51,404.63 C363.51,404.63 363.93,405.86 363.93,405.86 C364.57,407.46 364.87,409.16 365.24,410.82 C365.46,411.64 365.48,412.51 365.58,413.35 C365.58,413.35 365.84,415.86 365.84,415.86 C365.84,415.86 365.22,413.42 365.22,413.42 C364.99,412.61 364.85,411.78 364.51,411.01 C363.91,409.45 363.39,407.88 362.55,406.44 C362.55,406.44 361.99,405.35 361.99,405.35 C361.81,404.98 361.61,404.62 361.36,404.29 C361.36,404.29 360,402.26 360,402.26 C359.54,401.59 358.97,401 358.46,400.37 C358.2,400.06 357.95,399.75 357.68,399.45 C357.68,399.45 356.81,398.6 356.81,398.6 C354.53,396.34 351.93,394.43 349.12,392.97 C349.12,392.97 346.99,391.93 346.99,391.93 C346.25,391.64 345.54,391.31 344.8,391.06 C344.06,390.79 343.32,390.54 342.58,390.34 C341.86,390.13 341.04,389.94 340.46,389.84 C340.46,389.84 341.86,384.01 341.86,384.01z "/></g><g id="_R_G_L_7_G" transform=" translate(246.5, 251) translate(-256, -256)"><path id="_R_G_L_7_G_D_0_P_0" fill="#ffffff" fill-opacity="1" fill-rule="nonzero" d=" M183.95 353.34 C183.95,353.34 147.57,389.72 168.41,428.75 C189.25,467.78 263.15,460.58 263.15,460.58 C263.15,460.58 342.68,464.41 342.98,421.55 C343.17,394.26 334.27,374.18 317.28,355.61 C300.28,337.04 203.27,332.5 183.95,353.34z "/><path id="_R_G_L_7_G_D_1_P_0" stroke="#000342" stroke-linecap="round" stroke-linejoin="round" fill="none" stroke-width="6" stroke-opacity="1" d=" M183.95 353.34 C183.95,353.34 147.57,389.72 168.41,428.75 C189.25,467.78 263.15,460.58 263.15,460.58 C263.15,460.58 342.68,464.41 342.98,421.55 C343.17,394.26 334.27,374.18 317.28,355.61 C300.28,337.04 203.27,332.5 183.95,353.34z "/></g><g id="_R_G_L_6_G" transform=" translate(194.5, 451.5)"><path id="_R_G_L_6_G_D_0_P_0" fill="#ffffff" fill-opacity="1" fill-rule="nonzero" d=" M181.67 401.59 C181.67,401.59 169.93,393.38 154.64,399.19 C139.36,405 137.72,429.25 142.14,442.01 C146.56,454.77 157.93,466.9 179.53,465.76 C201.13,464.62 207.95,456.92 207.95,456.92 C207.95,456.92 198.98,409.42 181.67,401.59z "/><path id="_R_G_L_6_G_D_1_P_0" stroke="#000342" stroke-linecap="round" stroke-linejoin="round" fill="none" stroke-width="6" stroke-opacity="1" d=" M181.67 401.59 C181.67,401.59 169.93,393.38 154.64,399.19 C139.36,405 137.72,429.25 142.14,442.01 C146.56,454.77 157.93,466.9 179.53,465.76 C201.13,464.62 207.95,456.92 207.95,456.92 C207.95,456.92 198.98,409.42 181.67,401.59z "/><path id="_R_G_L_6_G_D_2_P_0" fill="#dab6d0" fill-opacity="1" fill-rule="nonzero" d=" M143.01 428.12 C143.01,428.12 141.32,450.84 162.6,460.26 C162.6,460.26 174.73,466.33 194.31,460.58 C194.31,460.58 185.72,449.15 181.86,434.75 C181.86,434.75 168.16,444.98 159.38,444.6 C150.6,444.22 144.08,435.63 143.01,428.12z "/><path id="_R_G_L_6_G_D_3_P_0" fill="#d4217d" fill-opacity="1" fill-rule="nonzero" d=" M160.07 417.95 C160.07,417.95 150.98,421.45 152.87,433.58 C154.77,445.71 167.65,453.38 172.49,450.06 C177.32,446.75 177.98,436.14 173.43,426.85 C168.89,417.57 160.92,417.53 160.07,417.95z "/><path id="_R_G_L_6_G_D_4_P_0" fill="#831254" fill-opacity="1" fill-rule="nonzero" d=" M159.38 444.6 C158.97,444.58 158.56,444.53 158.16,444.48 C162.87,449.75 169.36,452.21 172.48,450.06 C175.34,448.11 176.72,443.6 176.45,438.34 C171.67,441.25 164.64,444.83 159.38,444.6z "/></g><g id="_R_G_L_5_G" transform=" translate(285.5, 453)"><path id="_R_G_L_5_G_D_0_P_0" fill="#ffffff" fill-opacity="1" fill-rule="nonzero" d=" M320.15 402.28 C320.15,402.28 331.9,394.07 347.18,399.88 C362.47,405.69 364.11,429.94 359.69,442.7 C355.27,455.46 343.9,467.58 322.3,466.45 C300.7,465.31 293.88,457.6 293.88,457.6 C293.88,457.6 302.85,410.11 320.15,402.28z "/><path id="_R_G_L_5_G_D_1_P_0" stroke="#000342" stroke-linecap="round" stroke-linejoin="round" fill="none" stroke-width="6" stroke-opacity="1" d=" M320.15 402.28 C320.15,402.28 331.9,394.07 347.18,399.88 C362.47,405.69 364.11,429.94 359.69,442.7 C355.27,455.46 343.9,467.58 322.3,466.45 C300.7,465.31 293.88,457.6 293.88,457.6 C293.88,457.6 302.85,410.11 320.15,402.28z "/><path id="_R_G_L_5_G_D_2_P_0" fill="#dab6d0" fill-opacity="1" fill-rule="nonzero" d=" M358.82 428.81 C358.82,428.81 360.51,451.53 339.23,460.95 C339.23,460.95 327.1,467.02 307.52,461.27 C307.52,461.27 316.11,449.84 319.96,435.44 C319.96,435.44 333.67,445.67 342.45,445.29 C351.23,444.91 357.75,436.32 358.82,428.81z "/><path id="_R_G_L_5_G_D_3_P_0" fill="#d4217d" fill-opacity="1" fill-rule="nonzero" d=" M341.75 418.64 C341.75,418.64 350.85,422.14 348.95,434.27 C347.06,446.39 334.17,454.07 329.34,450.75 C324.51,447.44 323.85,436.83 328.39,427.54 C332.94,418.26 340.91,418.22 341.75,418.64z "/><path id="_R_G_L_5_G_D_4_P_0" fill="#831254" fill-opacity="1" fill-rule="nonzero" d=" M342.45 445.29 C342.86,445.27 343.26,445.22 343.66,445.17 C338.95,450.44 332.46,452.9 329.34,450.75 C326.49,448.8 325.1,444.29 325.37,439.03 C330.16,441.93 337.19,445.52 342.45,445.29z "/></g><g id="_R_G_L_4_G" transform=" translate(172, 359)"><path id="_R_G_L_4_G_D_0_P_0" fill="#ffffff" fill-opacity="1" fill-rule="nonzero" d=" M181.18 364.35 C181.18,364.35 173.48,388.96 181.18,420.03 C188.87,451.11 200.24,471.57 220.2,470.56 C240.16,469.55 249.73,460.36 246.19,415.67 "/><path id="_R_G_L_4_G_D_1_P_0" fill="#000342" fill-opacity="1" fill-rule="nonzero" d=" M184.04 365.25 C183.58,366.98 183.17,368.99 182.84,370.91 C182.51,372.85 182.21,374.8 181.97,376.77 C181.49,380.69 181.24,384.66 181.18,388.62 C181.09,396.54 181.68,404.47 183.14,412.24 C183.85,416.12 184.78,419.96 185.83,423.86 C186.87,427.73 188.02,431.56 189.3,435.32 C191.88,442.82 195.01,450.16 199.49,456.3 C201.71,459.37 204.31,462.06 207.3,464.05 C210.28,466.05 213.69,467.2 217.27,467.49 C218.16,467.58 219.07,467.57 219.98,467.56 C220.94,467.53 221.92,467.49 222.87,467.41 C224.79,467.25 226.66,466.99 228.45,466.55 C232.04,465.68 235.2,464.04 237.61,461.43 C238.81,460.13 239.84,458.61 240.69,456.96 C241.52,455.28 242.21,453.49 242.8,451.65 C243.94,447.93 244.6,443.99 245.1,440.01 C246.01,432.02 246.12,423.85 246.19,415.67 C247.48,423.75 248.38,431.92 248.23,440.22 C248.17,444.36 247.76,448.54 246.87,452.72 C246.39,454.81 245.78,456.9 244.9,458.93 C244.01,460.96 242.87,462.93 241.41,464.72 C239.95,466.5 238.17,468.08 236.19,469.29 C234.2,470.5 232.07,471.37 229.92,471.99 C227.77,472.61 225.61,472.99 223.47,473.25 C222.39,473.39 221.34,473.48 220.27,473.56 C219.14,473.6 218,473.63 216.86,473.56 C212.31,473.32 207.71,471.89 203.86,469.42 C199.99,466.99 196.78,463.77 194.14,460.31 C188.87,453.31 185.49,445.48 182.66,437.63 C181.26,433.69 180.08,429.7 178.99,425.71 C177.92,421.73 176.89,417.65 176.16,413.5 C174.7,405.23 174.07,396.81 174.42,388.43 C174.59,384.24 174.97,380.06 175.58,375.91 C175.88,373.83 176.23,371.76 176.69,369.7 C176.91,368.67 177.15,367.64 177.42,366.61 C177.69,365.57 177.95,364.6 178.31,363.46 C178.82,361.88 180.51,361.01 182.08,361.52 C183.61,362 184.47,363.6 184.07,365.14 C184.07,365.14 184.04,365.25 184.04,365.25z "/><path id="_R_G_L_4_G_D_2_P_0" fill="#dab6d0" fill-opacity="1" fill-rule="nonzero" d=" M184.31 417.82 C184.31,417.82 196.9,457.3 220.9,456.13 C244.9,454.96 245.91,427.23 245.91,427.23 C245.91,427.23 249,462.41 228.03,466.93 C228.03,466.93 215.16,470.46 206.09,463.23 C206.09,463.23 192.43,455.4 184.31,417.82z "/><path id="_R_G_L_4_G_D_3_P_0" fill="#ffffff" fill-opacity="1" fill-rule="nonzero" d=" M214.13 470.17 C214.13,470.17 214.13,455.27 214.13,455.27 "/><path id="_R_G_L_4_G_D_4_P_0" stroke="#000342" stroke-linecap="round" stroke-linejoin="round" fill="none" stroke-width="2" stroke-opacity="1" d=" M214.13 470.17 C214.13,470.17 214.13,455.27 214.13,455.27 "/><path id="_R_G_L_4_G_D_5_P_0" fill="#ffffff" fill-opacity="1" fill-rule="nonzero" d=" M227.22 469.74 C227.22,469.74 225.73,456.13 225.73,456.13 "/><path id="_R_G_L_4_G_D_6_P_0" stroke="#000342" stroke-linecap="round" stroke-linejoin="round" fill="none" stroke-width="2" stroke-opacity="1" d=" M227.22 469.74 C227.22,469.74 225.73,456.13 225.73,456.13 "/></g><g id="_R_G_L_3_G" transform=" translate(309.5, 362)"><path id="_R_G_L_3_G_D_0_P_0" fill="#ffffff" fill-opacity="1" fill-rule="nonzero" d=" M320.65 365.04 C320.65,365.04 328.35,389.65 320.65,420.72 C312.95,451.79 301.58,472.26 281.63,471.25 C261.67,470.24 252.1,461.05 255.64,416.36 "/><path id="_R_G_L_3_G_D_1_P_0" fill="#000342" fill-opacity="1" fill-rule="nonzero" d=" M323.51 364.15 C323.88,365.28 324.14,366.26 324.41,367.3 C324.67,368.33 324.91,369.36 325.14,370.39 C325.59,372.45 325.95,374.52 326.25,376.6 C326.86,380.75 327.23,384.93 327.4,389.12 C327.75,397.5 327.13,405.92 325.67,414.19 C324.93,418.34 323.91,422.42 322.84,426.39 C321.74,430.39 320.56,434.38 319.17,438.32 C316.33,446.16 312.96,454 307.69,461 C305.05,464.46 301.84,467.68 297.97,470.11 C294.11,472.58 289.51,474.01 284.96,474.25 C283.82,474.32 282.69,474.29 281.56,474.25 C280.49,474.16 279.43,474.08 278.36,473.94 C276.22,473.68 274.06,473.29 271.91,472.67 C269.76,472.05 267.62,471.19 265.64,469.98 C263.65,468.77 261.87,467.19 260.42,465.41 C258.95,463.62 257.81,461.64 256.92,459.62 C256.04,457.59 255.43,455.5 254.95,453.41 C254.06,449.23 253.65,445.05 253.6,440.9 C253.45,432.61 254.35,424.44 255.64,416.36 C255.71,424.54 255.82,432.7 256.73,440.69 C257.22,444.68 257.88,448.62 259.02,452.34 C259.62,454.18 260.3,455.97 261.13,457.64 C261.99,459.3 263.01,460.82 264.22,462.12 C266.63,464.73 269.79,466.37 273.38,467.24 C275.16,467.68 277.04,467.94 278.95,468.09 C279.91,468.18 280.89,468.21 281.85,468.25 C282.76,468.26 283.66,468.26 284.56,468.18 C288.14,467.89 291.55,466.74 294.53,464.73 C297.51,462.75 300.12,460.05 302.33,456.98 C306.81,450.85 309.95,443.5 312.52,436.01 C313.8,432.25 314.96,428.42 316,424.54 C317.05,420.65 317.98,416.81 318.68,412.92 C320.15,405.15 320.73,397.22 320.65,389.3 C320.59,385.34 320.33,381.38 319.85,377.45 C319.62,375.49 319.31,373.54 318.99,371.59 C318.66,369.68 318.25,367.67 317.79,365.94 C317.79,365.94 317.76,365.83 317.76,365.83 C317.33,364.23 318.28,362.59 319.88,362.16 C321.43,361.75 323.03,362.64 323.51,364.15z "/><path id="_R_G_L_3_G_D_2_P_0" fill="#dab6d0" fill-opacity="1" fill-rule="nonzero" d=" M317.52 418.51 C317.52,418.51 304.93,457.98 280.93,456.81 C256.93,455.65 255.92,427.92 255.92,427.92 C255.92,427.92 252.83,463.1 273.8,467.61 C273.8,467.61 286.66,471.14 295.73,463.92 C295.73,463.92 309.4,456.08 317.52,418.51z "/><path id="_R_G_L_3_G_D_3_P_0" fill="#ffffff" fill-opacity="1" fill-rule="nonzero" d=" M287.7 470.85 C287.7,470.85 287.7,455.96 287.7,455.96 "/><path id="_R_G_L_3_G_D_4_P_0" stroke="#000342" stroke-linecap="round" stroke-linejoin="round" fill="none" stroke-width="2" stroke-opacity="1" d=" M287.7 470.85 C287.7,470.85 287.7,455.96 287.7,455.96 "/><path id="_R_G_L_3_G_D_5_P_0" fill="#ffffff" fill-opacity="1" fill-rule="nonzero" d=" M274.61 470.42 C274.61,470.42 276.1,456.82 276.1,456.82 "/><path id="_R_G_L_3_G_D_6_P_0" stroke="#000342" stroke-linecap="round" stroke-linejoin="round" fill="none" stroke-width="2" stroke-opacity="1" d=" M274.61 470.42 C274.61,470.42 276.1,456.82 276.1,456.82 "/></g><g id="_R_G_L_2_G" transform=" translate(240.781, 359.706)"><path id="_R_G_L_2_G_D_0_P_0" fill="#ff9d02" fill-opacity="1" fill-rule="nonzero" d=" M242.71 372.48 C242.71,372.48 243.7,374.94 243.7,374.94 C243.7,374.94 233.34,380.75 236.75,396.16 C240.16,411.57 266.08,410.1 266.69,393.13 C267.22,377.97 256,374.56 256,374.56 C256,374.56 256.93,372.2 256.93,372.2 C257.76,370.56 256.56,368.62 254.72,368.62 C254.72,368.62 245.32,368.62 245.32,368.62 C243.33,368.62 241.97,370.63 242.71,372.48z "/><path id="_R_G_L_2_G_D_1_P_0" stroke="#000342" stroke-linecap="round" stroke-linejoin="round" fill="none" stroke-width="4" stroke-opacity="1" d=" M242.71 372.48 C242.71,372.48 243.7,374.94 243.7,374.94 C243.7,374.94 233.34,380.75 236.75,396.16 C240.16,411.57 266.08,410.1 266.69,393.13 C267.22,377.97 256,374.56 256,374.56 C256,374.56 256.93,372.2 256.93,372.2 C257.76,370.56 256.56,368.62 254.72,368.62 C254.72,368.62 245.32,368.62 245.32,368.62 C243.33,368.62 241.97,370.63 242.71,372.48z "/></g><g id="_R_G_L_1_G" transform=" translate(240.5, 363.5) translate(-250, -368.5)"><g id="_R_G_L_1_G_D_0_P_0_G_0_T_0"><path id="_R_G_L_1_G_D_0_P_0" fill="#ffffff" fill-opacity="1" fill-rule="nonzero" d=" M-42.25 76.94 C-42.25,76.94 -66.7,53.8 -68.59,-3.04 C-70.48,-59.89 -62.33,-70.12 -55.42,-73.53 C-48.5,-76.94 4.71,-59.49 37.6,-10.99 C70.48,37.5 -42.25,76.94 -42.25,76.94z "/></g><g id="_R_G_L_1_G_D_1_P_0_G_0_T_0"><path id="_R_G_L_1_G_D_1_P_0" stroke="#000342" stroke-linecap="round" stroke-linejoin="round" fill="none" stroke-width="6" stroke-opacity="1" d=" M-42.25 76.94 C-42.25,76.94 -66.7,53.8 -68.59,-3.04 C-70.48,-59.89 -62.33,-70.12 -55.42,-73.53 C-48.5,-76.94 4.71,-59.49 37.6,-10.99 C70.48,37.5 -42.25,76.94 -42.25,76.94z "/></g><g id="_R_G_L_1_G_D_2_P_0_G_0_T_0"><path id="_R_G_L_1_G_D_2_P_0" fill="#fa5cb1" fill-opacity="1" fill-rule="nonzero" d=" M-9.67 61.66 C-9.67,61.66 -43.1,21.46 -26.17,-61.65 C-26.17,-61.65 10.56,-46.25 43.1,-1.41 C43.1,-1.41 2.53,43.75 -9.67,61.66z "/></g><g id="_R_G_L_1_G_D_3_P_0_G_0_T_0"><path id="_R_G_L_1_G_D_3_P_0" stroke="#000342" stroke-linecap="round" stroke-linejoin="round" fill="none" stroke-width="6" stroke-opacity="1" d=" M34.78 29.4 C34.78,29.4 -2.99,-22.38 -34.78,-29.39 "/></g><g id="_R_G_L_1_G_D_4_P_0_G_0_T_0"><path id="_R_G_L_1_G_D_4_P_0" fill="#ffffff" fill-opacity="1" fill-rule="nonzero" d=" M42.25 76.94 C42.25,76.94 66.7,53.8 68.59,-3.04 C70.48,-59.89 62.33,-70.12 55.42,-73.53 C48.51,-76.94 -4.71,-59.49 -37.6,-10.99 C-70.48,37.5 42.25,76.94 42.25,76.94z "/></g><g id="_R_G_L_1_G_D_5_P_0_G_0_T_0"><path id="_R_G_L_1_G_D_5_P_0" stroke="#000342" stroke-linecap="round" stroke-linejoin="round" fill="none" stroke-width="6" stroke-opacity="1" d=" M42.25 76.94 C42.25,76.94 66.7,53.8 68.59,-3.04 C70.48,-59.89 62.33,-70.12 55.42,-73.53 C48.51,-76.94 -4.71,-59.49 -37.6,-10.99 C-70.48,37.5 42.25,76.94 42.25,76.94z "/></g><g id="_R_G_L_1_G_D_6_P_0_G_0_T_0"><path id="_R_G_L_1_G_D_6_P_0" fill="#fa5cb1" fill-opacity="1" fill-rule="nonzero" d=" M9.67 61.66 C9.67,61.66 43.1,21.46 26.17,-61.65 C26.17,-61.65 -10.56,-46.25 -43.1,-1.41 C-43.1,-1.41 -2.53,43.75 9.67,61.66z "/></g><g id="_R_G_L_1_G_D_7_P_0_G_0_T_0"><path id="_R_G_L_1_G_D_7_P_0" stroke="#000342" stroke-linecap="round" stroke-linejoin="round" fill="none" stroke-width="6" stroke-opacity="1" d=" M-34.78 29.4 C-34.78,29.4 2.99,-22.38 34.78,-29.39 "/></g><path id="_R_G_L_1_G_D_8_P_0" fill="#ffffff" fill-opacity="1" fill-rule="nonzero" d=" M394.77 286.33 C394.77,355.81 330.3,370.58 250.77,370.58 C171.24,370.58 106.77,353.79 106.77,284.31 C106.77,214.82 165.88,133.23 250.77,133.23 C339.19,133.23 394.77,216.84 394.77,286.33z "/><path id="_R_G_L_1_G_D_9_P_0" stroke="#000342" stroke-linecap="round" stroke-linejoin="round" fill="none" stroke-width="6" stroke-opacity="1" d=" M394.77 286.33 C394.77,355.81 330.3,370.58 250.77,370.58 C171.24,370.58 106.77,353.79 106.77,284.31 C106.77,214.82 165.88,133.23 250.77,133.23 C339.19,133.23 394.77,216.84 394.77,286.33z "/><path id="_R_G_L_1_G_D_10_P_0" fill="#dab6d0" fill-opacity="1" fill-rule="nonzero" d=" M118.02 315.53 C118.02,315.53 123.63,313.12 125.12,315.03 C132.5,324.5 153.48,363.87 252.01,361.41 C252.01,361.41 346.01,361.98 379.17,319.22 C379.17,319.22 385.96,305.01 385.96,305.01 C385.96,305.01 391.55,278.83 391.55,278.83 C391.55,278.83 394.01,308.5 381.76,325.42 C369.51,342.35 351.25,367.55 244.58,367.55 C137.91,367.55 121.43,328.53 114.41,312.6 C107.59,297.11 118.02,315.53 118.02,315.53z "/><g id="_R_G_L_1_G_D_11_P_0_G_0_T_0"><path id="_R_G_L_1_G_D_11_P_0" fill="#f652ff" fill-opacity="1" fill-rule="nonzero" d=" M24.77 54.89 C27.86,74.97 -27.86,74.89 -25.25,54.89 C-12.32,-44.12 -10.3,-38.7 -5.63,-69.37 C-4.84,-74.53 0.3,-74.97 1.44,-69.87 C14.83,-9.87 16.1,-1.41 24.77,54.89z "/></g><g id="_R_G_L_1_G_D_12_P_0_G_0_T_0"><path id="_R_G_L_1_G_D_12_P_0" stroke="#000342" stroke-linecap="round" stroke-linejoin="round" fill="none" stroke-width="6" stroke-opacity="1" d=" M24.77 54.89 C27.86,74.97 -27.86,74.89 -25.25,54.89 C-12.32,-44.12 -10.3,-38.7 -5.63,-69.37 C-4.84,-74.53 0.3,-74.97 1.44,-69.87 C14.83,-9.87 16.1,-1.41 24.77,54.89z "/></g><g id="_R_G_L_1_G_D_13_P_0_G_0_T_0"><path id="_R_G_L_1_G_D_13_P_0" fill="#f053fc" fill-opacity="1" fill-rule="nonzero" d=" M25.12 11.9 C25.12,11.9 18.84,-28.89 18.84,-28.89 C18.84,-28.9 18.84,-28.9 18.84,-28.91 C15.22,-21.71 8.25,-17.07 -1.85,-13.85 C-11.95,-10.63 -21.89,-12.81 -21.91,-12.81 C-22.87,-5.74 -23.9,1.99 -25.01,10.52 C-25.12,11.37 -25.12,12.19 -25.03,12.97 C-24.93,13.63 -24.76,14.37 -24.49,15.15 C-19.67,27.71 12.77,28.91 22.43,18.64 C24.94,15.48 25.11,12.46 25.12,11.99 C25.12,11.96 25.12,11.93 25.12,11.9z "/></g><g id="_R_G_L_1_G_D_14_P_0_G_0_T_0"><path id="_R_G_L_1_G_D_14_P_0" stroke="#000342" stroke-linecap="round" stroke-linejoin="round" fill="none" stroke-width="4" stroke-opacity="1" d=" M25.12 11.9 C25.12,11.9 18.84,-28.89 18.84,-28.89 C18.84,-28.9 18.84,-28.9 18.84,-28.91 C15.22,-21.71 8.25,-17.07 -1.85,-13.85 C-11.95,-10.63 -21.89,-12.81 -21.91,-12.81 C-22.87,-5.74 -23.9,1.99 -25.01,10.52 C-25.12,11.37 -25.12,12.19 -25.03,12.97 C-24.93,13.63 -24.76,14.37 -24.49,15.15 C-19.67,27.71 12.77,28.91 22.43,18.64 C24.94,15.48 25.11,12.46 25.12,11.99 C25.12,11.96 25.12,11.93 25.12,11.9z "/></g><g id="_R_G_L_1_G_D_15_P_0_G_0_T_0"><path id="_R_G_L_1_G_D_15_P_0" fill="#fe0c24" fill-opacity="1" fill-rule="nonzero" d=" M-7.9 -11.73 C-7.9,-11.73 -13.44,19.97 -13.44,19.97 C-13.44,19.97 8.66,16.24 13.44,8.22 C13.44,8.22 7.54,-19.96 7.54,-19.96 C7.54,-19.96 4.45,-10.13 -7.9,-11.73z "/></g><g id="_R_G_L_1_G_D_16_P_0_G_0_T_0"><path id="_R_G_L_1_G_D_16_P_0" stroke="#000342" stroke-linecap="round" stroke-linejoin="round" fill="none" stroke-width="4" stroke-opacity="1" d=" M-7.9 -11.73 C-7.9,-11.73 -13.44,19.97 -13.44,19.97 C-13.44,19.97 8.66,16.24 13.44,8.22 C13.44,8.22 7.54,-19.96 7.54,-19.96 C7.54,-19.96 4.45,-10.13 -7.9,-11.73z "/></g><g id="_R_G_L_1_G_D_17_P_0_G_0_T_0"><path id="_R_G_L_1_G_D_17_P_0" fill="#ffea07" fill-opacity="1" fill-rule="nonzero" d=" M-12.69 -10.85 C-12.69,-10.85 -16.89,16.16 -16.92,16.54 C-16.96,16.91 5.17,23.11 16.96,7.79 C16.96,7.79 10.91,-23.11 10.91,-23.11 C10.91,-23.11 5.91,-7.72 -12.69,-10.85z "/></g><g id="_R_G_L_1_G_D_18_P_0_G_0_T_0"><path id="_R_G_L_1_G_D_18_P_0" stroke="#000342" stroke-linecap="round" stroke-linejoin="round" fill="none" stroke-width="4" stroke-opacity="1" d=" M-12.69 -10.85 C-12.69,-10.85 -16.89,16.16 -16.92,16.54 C-16.96,16.91 5.17,23.11 16.96,7.79 C16.96,7.79 10.91,-23.11 10.91,-23.11 C10.91,-23.11 5.91,-7.72 -12.69,-10.85z "/></g><g id="_R_G_L_1_G_D_19_P_0_G_0_T_0"><path id="_R_G_L_1_G_D_19_P_0" fill="#ffea07" fill-opacity="1" fill-rule="nonzero" d=" M-16.41 -13.92 C-16.41,-13.92 2.94,-6.57 16.07,-24.44 C16.07,-24.44 20.88,3.74 20.88,3.74 C20.88,3.74 14.18,24.44 -20.88,17.91 C-20.88,17.91 -16.41,-13.92 -16.41,-13.92z "/></g><g id="_R_G_L_1_G_D_20_P_0_G_0_T_0"><path id="_R_G_L_1_G_D_20_P_0" stroke="#000342" stroke-linecap="round" stroke-linejoin="round" fill="none" stroke-width="4" stroke-opacity="1" d=" M-16.41 -13.92 C-16.41,-13.92 2.94,-6.57 16.07,-24.44 C16.07,-24.44 20.88,3.74 20.88,3.74 C20.88,3.74 14.18,24.44 -20.88,17.91 C-20.88,17.91 -16.41,-13.92 -16.41,-13.92z "/></g><g id="_R_G_L_1_G_D_21_P_0_G_0_T_0"><g id="_R_G_L_1_G_D_21_P_0_G_0_T_0"><g id="_R_G_L_1_G_D_21_P_0_G_0_T_0"><path id="_R_G_L_1_G_D_21_P_0" fill="#050028" fill-opacity="1" fill-rule="nonzero" d=" M-26.68 0.89 C-26.02,-11.38 -19.45,-22.8 -10.61,-26.65 C-1.77,-30.5 2.97,-22.83 3.68,-20.7 C4.39,-18.57 5.05,-9.62 -3.9,-8.57 C-12.85,-7.53 -15.69,-15.35 -15.69,-15.35 C-15.69,-15.35 -20.05,-13.64 -21.57,-1.99 C-23.08,9.66 -15.5,28.33 5.72,29.46 C26.88,30.6 33.94,5.93 33.98,5.79 C34.36,2.83 34.55,-0.17 34.55,-3.09 C34.55,-22.21 19.84,-37.7 1.71,-37.7 C-16.43,-37.7 -34.55,-14.57 -34.55,4.55 C-34.55,23.66 -9.67,37.71 8.46,37.71 C9.03,37.71 9.59,37.68 10.13,37.64 C8.19,37.26 -2.12,35.07 -8.87,30.79 C-16.36,26.05 -27.35,13.17 -26.68,0.89z  M20.35 -0.11 C22.14,-0.11 23.59,1.34 23.59,3.13 C23.59,4.92 22.14,6.37 20.35,6.37 C18.56,6.37 17.11,4.92 17.11,3.13 C17.11,1.34 18.56,-0.11 20.35,-0.11z  M8.09 19.8 C10.74,17.48 22.87,17.79 23.43,18.85 C24.33,20.56 21.3,22.83 18.7,24.4 C16.09,25.96 11.35,28.23 7.85,24.4 C7.85,24.4 5.43,22.12 8.09,19.8z "/></g></g></g><g id="_R_G_L_1_G_D_22_P_0_G_0_T_0"><g id="_R_G_L_1_G_D_22_P_0_G_0_T_0"><g id="_R_G_L_1_G_D_22_P_0_G_0_T_0"><path id="_R_G_L_1_G_D_22_P_0" fill="#050028" fill-opacity="1" fill-rule="nonzero" d=" M-1.71 -37.7 C-19.84,-37.7 -34.55,-22.21 -34.55,-3.09 C-34.55,-0.16 -34.36,2.83 -33.98,5.79 C-33.94,5.93 -26.85,31.03 -5.72,29.46 C14.06,28 22.38,9.34 20.85,-2.28 C17.82,-25.38 1.06,-28.9 10.5,-25.56 C19.59,-22.34 26.66,-11.4 26.68,0.89 C26.71,15.87 16.36,26.05 8.87,30.79 C2.12,35.07 -8.19,37.26 -10.13,37.64 C-9.58,37.68 -9.03,37.71 -8.46,37.71 C9.67,37.71 34.55,23.66 34.55,4.55 C34.55,-14.57 16.43,-37.7 -1.71,-37.7z  M-16.57 -8.63 C-21.56,-8.63 -25.6,-12.67 -25.6,-17.66 C-25.6,-22.65 -21.56,-26.69 -16.57,-26.69 C-11.58,-26.69 -7.54,-22.65 -7.54,-17.66 C-7.54,-12.67 -11.58,-8.63 -16.57,-8.63z  M8.22 3.63 C8.22,5.42 6.76,6.87 4.97,6.87 C3.18,6.87 1.73,5.42 1.73,3.63 C1.73,1.84 3.18,0.39 4.97,0.39 C6.76,0.39 8.22,1.84 8.22,3.63z "/></g></g></g><g id="_R_G_L_1_G_D_23_P_0_G_0_T_0"><path id="_R_G_L_1_G_D_23_P_0" fill="#ffffff" fill-opacity="1" fill-rule="nonzero" d=" M-10.96 -17 C-10.96,-17 -10.96,-17 -10.96,-17 C-12.89,-5.35 -3.54,12.84 1.95,14.92 C7.45,17 12.56,14.92 12.56,14.92 C12.56,14.92 12.68,14.9 12.89,14.86 C-1.39,13.77 -8.93,-1.23 -10.96,-17z "/></g><g id="_R_G_L_1_G_D_24_P_0_G_0_T_0"><path id="_R_G_L_1_G_D_24_P_0" fill="#fc5a8b" fill-opacity="1" fill-rule="nonzero" d=" M-16.44 6.58 C-16.44,6.58 -11.89,8.01 -10.09,4.12 C-10.09,4.12 -16.44,-7.63 -10.09,-12.74 C-3.74,-17.86 6.49,-19.94 11.89,-10.18 C17.29,-0.43 12.36,13.88 4.41,16.91 C-3.55,19.94 -14.16,18.43 -16.44,10.66 C-16.44,10.66 -17.29,8.67 -16.44,6.58z "/></g><g id="_R_G_L_1_G_D_25_P_0_G_0_T_0"><path id="_R_G_L_1_G_D_25_P_0" fill="#fc5a8b" fill-opacity="1" fill-rule="nonzero" d=" M16.44 6.58 C16.44,6.58 11.89,8.01 10.09,4.12 C10.09,4.12 16.44,-7.63 10.09,-12.74 C3.74,-17.86 -6.49,-19.94 -11.89,-10.18 C-17.29,-0.43 -12.36,13.88 -4.4,16.91 C3.55,19.94 14.16,18.43 16.44,10.66 C16.44,10.66 17.29,8.67 16.44,6.58z "/></g><g id="_R_G_L_1_G_D_26_P_0_G_0_T_0"><path id="_R_G_L_1_G_D_26_P_0" fill="#d74d6e" fill-opacity="1" fill-rule="nonzero" d=" M18.9 -5.31 C18.9,-5.31 0.8,1.8 -23.92,5.31 C-23.92,5.31 13.12,2.65 23.92,-0.81 C23.92,-0.81 18.9,-5.31 18.9,-5.31z "/></g><g id="_R_G_L_1_G_D_27_P_0_G_0_T_0"><path id="_R_G_L_1_G_D_27_P_0" stroke="#000342" stroke-linecap="round" stroke-linejoin="round" fill="none" stroke-width="6" stroke-opacity="1" d=" M28.55 -6.99 C28.55,-6.99 -3.03,3.71 -28.55,6.99 "/></g><g id="_R_G_L_1_G_D_28_P_0_G_0_T_0"><path id="_R_G_L_1_G_D_28_P_0" stroke="#000342" stroke-linecap="round" stroke-linejoin="round" fill="none" stroke-width="6" stroke-opacity="1" d=" M13.27 2.13 C13.27,2.13 1.37,0.92 -13.27,-2.13 "/></g><g id="_R_G_L_1_G_D_29_P_0_G_0_T_0"><path id="_R_G_L_1_G_D_29_P_0" stroke="#000342" stroke-linecap="round" stroke-linejoin="round" fill="none" stroke-width="6" stroke-opacity="1" d=" M12.43 3.72 C12.43,3.72 -3.18,0.2 -12.43,-3.72 "/></g><g id="_R_G_L_1_G_D_30_P_0_G_0_T_0"><path id="_R_G_L_1_G_D_30_P_0" fill="#d74d6e" fill-opacity="1" fill-rule="nonzero" d=" M-18.9 -5.31 C-18.9,-5.31 -0.8,1.8 23.92,5.31 C23.92,5.31 -13.12,2.65 -23.92,-0.81 C-23.92,-0.81 -18.9,-5.31 -18.9,-5.31z "/></g><g id="_R_G_L_1_G_D_31_P_0_G_0_T_0"><path id="_R_G_L_1_G_D_31_P_0" stroke="#000342" stroke-linecap="round" stroke-linejoin="round" fill="none" stroke-width="6" stroke-opacity="1" d=" M-28.55 -6.99 C-28.55,-6.99 3.03,3.71 28.55,6.99 "/></g><g id="_R_G_L_1_G_D_32_P_0_G_0_T_0"><path id="_R_G_L_1_G_D_32_P_0" stroke="#000342" stroke-linecap="round" stroke-linejoin="round" fill="none" stroke-width="6" stroke-opacity="1" d=" M-13.27 2.13 C-13.27,2.13 -1.37,0.92 13.27,-2.13 "/></g><g id="_R_G_L_1_G_D_33_P_0_G_0_T_0"><path id="_R_G_L_1_G_D_33_P_0" stroke="#000342" stroke-linecap="round" stroke-linejoin="round" fill="none" stroke-width="6" stroke-opacity="1" d=" M-12.43 3.72 C-12.43,3.72 3.18,0.2 12.43,-3.72 "/></g><g id="_R_G_L_1_G_D_34_P_0_G_0_T_0"><path id="_R_G_L_1_G_D_34_P_0" fill="#ffffff" fill-opacity="1" fill-rule="nonzero" d=" M9.75 -2.45 C9.75,2.07 1.1,6.82 -0.36,6.33 C-2.17,5.73 -9.75,1.73 -9.75,-2.79 C-9.75,-5.87 -5.81,-6.82 -0.2,-6.82 C5.42,-6.82 9.75,-6.44 9.75,-2.45z "/></g><g id="_R_G_L_1_G_D_35_P_0_G_0_T_0"><path id="_R_G_L_1_G_D_35_P_0" stroke="#000342" stroke-linecap="round" stroke-linejoin="round" fill="none" stroke-width="3" stroke-opacity="1" d=" M9.75 -2.45 C9.75,2.07 1.1,6.82 -0.36,6.33 C-2.17,5.73 -9.75,1.73 -9.75,-2.79 C-9.75,-5.87 -5.81,-6.82 -0.2,-6.82 C5.42,-6.82 9.75,-6.44 9.75,-2.45z "/></g><g id="_R_G_L_1_G_D_36_P_0_G_0_T_0"><path id="_R_G_L_1_G_D_36_P_0" fill="#7d1959" fill-opacity="1" fill-rule="nonzero" d=" M9.55 -5.6 C9.55,-5.6 8.08,6.49 8.08,6.49 C8.08,6.49 4.18,11.72 -0.08,11.44 C-4.34,11.16 -8.75,5.19 -8.75,5.19 C-8.75,5.19 -9.55,-2.3 -9.27,-5.38 C-8.98,-8.46 -0.24,-11.72 -0.24,-11.72 C-0.24,-11.72 8.94,-6.88 9.55,-5.6z "/></g><g id="_R_G_L_1_G_D_37_P_0_G_0_T_0"><path id="_R_G_L_1_G_D_37_P_0" stroke="#000342" stroke-linecap="round" stroke-linejoin="round" fill="none" stroke-width="2" stroke-opacity="1" d=" M9.55 -5.6 C9.55,-5.6 8.08,6.49 8.08,6.49 C8.08,6.49 4.18,11.72 -0.08,11.44 C-4.34,11.16 -8.75,5.19 -8.75,5.19 C-8.75,5.19 -9.55,-2.3 -9.27,-5.38 C-8.98,-8.46 -0.24,-11.72 -0.24,-11.72 C-0.24,-11.72 8.94,-6.88 9.55,-5.6z "/></g><g id="_R_G_L_1_G_D_38_P_0_G_0_T_0"><path id="_R_G_L_1_G_D_38_P_0" fill="#fa5baf" fill-opacity="1" fill-rule="nonzero" d=" M-7.51 -0.36 C-7.51,-0.36 -6.78,-6.52 -0.11,-6.62 C6.56,-6.73 7.51,0.9 7.51,0.9 C7.51,0.9 6.18,6.73 0.56,6.28 C-5.06,5.84 -7.51,-0.36 -7.51,-0.36z "/></g><g id="_R_G_L_1_G_D_39_P_0_G_0_T_0"><path id="_R_G_L_1_G_D_39_P_0" stroke="#000342" stroke-linecap="round" stroke-linejoin="round" fill="none" stroke-width="3" stroke-opacity="1" d=" M-9.14 -3.06 C-9.14,-3.06 -5.59,2.87 0.38,2.96 C6.35,3.06 9.14,-3.06 9.14,-3.06 "/></g><g id="_R_G_L_1_G_D_40_P_0_G_0_T_0"><path id="_R_G_L_1_G_D_40_P_0" fill="#ffffff" fill-opacity="1" fill-rule="nonzero" d=" M-22.57 -4.99 C-22.57,-4.99 -23.99,4.99 -12.43,4.58 C-1.79,4.2 0.87,-3 0.87,-3 C0.87,-3 5.1,4.87 15.99,4.59 C23.74,4.39 23.99,-1.82 23.8,-3.9 "/></g><g id="_R_G_L_1_G_D_41_P_0_G_0_T_0"><path id="_R_G_L_1_G_D_41_P_0" fill="#000342" fill-opacity="1" fill-rule="nonzero" d=" M-23.17 -5.83 C-22.86,-3.13 -21.77,-0.57 -19.82,0.62 C-17.93,1.83 -15.56,2.03 -13.14,1.76 C-10.68,1.49 -8.36,0.83 -6.39,-0.27 C-5.42,-0.84 -4.54,-1.51 -3.79,-2.29 C-3.4,-2.67 -3.07,-3.1 -2.76,-3.52 C-2.62,-3.74 -2.47,-3.96 -2.35,-4.18 C-2.29,-4.29 -2.23,-4.4 -2.18,-4.5 C-2.18,-4.5 -2.11,-4.64 -2.11,-4.64 C-2.09,-4.68 -2.06,-4.74 -2.08,-4.7 C-2.08,-4.7 2.46,-5.02 2.46,-5.02 C2.51,-4.94 2.68,-4.66 2.82,-4.47 C2.97,-4.26 3.12,-4.05 3.3,-3.84 C3.63,-3.42 4.01,-3.03 4.39,-2.64 C5.17,-1.86 6.05,-1.2 6.97,-0.58 C8.86,0.57 10.99,1.37 13.3,1.74 C15.66,2.1 17.97,2.24 19.83,1.23 C21.74,0.27 22.88,-2.15 23.2,-4.74 C23.57,-3.48 23.67,-2.09 23.4,-0.7 C23.15,0.68 22.43,2.09 21.29,3.15 C20.15,4.19 18.69,4.88 17.26,5.2 C15.79,5.54 14.39,5.6 12.99,5.61 C10.15,5.57 7.24,4.88 4.62,3.5 C3.32,2.79 2.12,1.92 1.01,0.93 C0.46,0.43 -0.05,-0.11 -0.53,-0.69 C-0.78,-0.97 -1.01,-1.27 -1.24,-1.58 C-1.47,-1.92 -1.66,-2.18 -1.93,-2.66 C-1.93,-2.66 2.61,-2.98 2.61,-2.98 C2.53,-2.78 2.49,-2.69 2.44,-2.58 C2.44,-2.58 2.29,-2.27 2.29,-2.27 C2.19,-2.06 2.09,-1.88 1.98,-1.7 C1.77,-1.32 1.54,-0.99 1.3,-0.65 C0.81,0.01 0.3,0.64 -0.28,1.2 C-1.44,2.33 -2.77,3.23 -4.17,3.95 C-7.02,5.29 -10.09,5.83 -13.01,5.72 C-13.76,5.66 -14.51,5.61 -15.25,5.52 C-16.01,5.33 -16.76,5.25 -17.49,4.97 C-18.97,4.49 -20.39,3.63 -21.49,2.47 C-22.56,1.29 -23.23,-0.18 -23.45,-1.62 C-23.67,-3.07 -23.58,-4.51 -23.17,-5.83z "/></g><g id="_R_G_L_1_G_D_42_P_0_G_0_T_0"><path id="_R_G_L_1_G_D_42_P_0" fill="#ffffff" fill-opacity="1" fill-rule="nonzero" d=" M0.16 3.17 C0.16,3.17 -0.16,-3.17 -0.16,-3.17 "/></g><g id="_R_G_L_1_G_D_43_P_0_G_0_T_0"><path id="_R_G_L_1_G_D_43_P_0" stroke="#000342" stroke-linecap="round" stroke-linejoin="round" fill="none" stroke-width="5" stroke-opacity="1" d=" M0.16 3.17 C0.16,3.17 -0.16,-3.17 -0.16,-3.17 "/></g><path id="_R_G_L_1_G_D_44_P_0" fill="#ff7149" fill-opacity="1" fill-rule="nonzero" d=" M140 196.07 C140,196.07 176.25,229 203.31,205.7 C224.35,187.58 200.35,146.69 200.35,146.69 C200.35,146.69 166.07,159.82 140,196.07z "/><path id="_R_G_L_1_G_D_45_P_0" fill="#fdc9cb" fill-opacity="1" fill-rule="nonzero" d=" M195.08 191.69 C206,180.5 183.9,157.5 182.12,156.38 C174.75,161.07 160.87,171.89 151.93,180.64 C157.67,186.05 178.22,208.98 195.08,191.69z "/><g id="_R_G_L_1_G_D_46_P_0_G_0_T_0" transform=" translate(312.781, 220.334) translate(0, 0)"><path id="_R_G_L_1_G_D_46_P_0" fill="#ffffff" fill-opacity="1" fill-rule="nonzero" d=" M1.78 -4.78 C-28.22,-4.78 -38.66,24.56 -38.66,24.56 C-38.66,24.56 -23.02,3.56 3.11,3.89 C29.24,4.21 38.66,34.78 38.66,34.78 C38.66,34.78 31.78,-4.78 1.78,-4.78z "/></g><g id="_R_G_L_1_G_D_47_P_0_G_0_T_0" transform=" translate(193.185, 218.556) translate(0, 0)"><path id="_R_G_L_1_G_D_47_P_0" fill="#ffffff" fill-opacity="1" fill-rule="nonzero" d=" M9.36 -5.89 C-19.31,-7.67 -38.04,24.78 -38.04,24.78 C-38.04,24.78 -19.74,7.89 5.37,5.22 C30.48,2.56 37.2,37.67 37.2,37.67 C37.2,37.67 38.04,-4.11 9.36,-5.89z "/></g></g><g id="_R_G_L_0_G" transform=" translate(255, 561)"><path id="_R_G_L_0_G_D_0_P_0" fill="#f5f5f5" fill-opacity="1" fill-rule="nonzero" d=" M85.42 15 C85.42,15 85.42,10.34 85.42,10.34 C85.42,10.34 84.65,10.34 84.65,10.34 C84.65,10.34 88.51,15 88.51,15 C88.51,15 90.14,15 90.14,15 C90.14,15 90.14,8 90.14,8 C90.14,8 88.2,8 88.2,8 C88.2,8 88.2,12.66 88.2,12.66 C88.2,12.66 88.97,12.66 88.97,12.66 C88.97,12.66 85.11,8 85.11,8 C85.11,8 83.48,8 83.48,8 C83.48,8 83.48,15 83.48,15 C83.48,15 85.42,15 85.42,15z "/><path id="_R_G_L_0_G_D_1_P_0" fill="#f5f5f5" fill-opacity="1" fill-rule="nonzero" d=" M82.07 15 C82.07,15 82.07,8 82.07,8 C82.07,8 80.08,8 80.08,8 C80.08,8 80.08,15 80.08,15 C80.08,15 82.07,15 82.07,15z "/><path id="_R_G_L_0_G_D_2_P_0" fill="#f5f5f5" fill-opacity="1" fill-rule="nonzero" d=" M74.41 13.36 C74.18,13.27 73.98,13.13 73.81,12.96 C73.64,12.78 73.51,12.57 73.41,12.32 C73.31,12.07 73.27,11.8 73.27,11.5 C73.27,11.19 73.31,10.92 73.41,10.68 C73.51,10.43 73.64,10.22 73.81,10.05 C73.98,9.87 74.18,9.73 74.41,9.64 C74.64,9.55 74.89,9.5 75.16,9.5 C75.42,9.5 75.67,9.55 75.9,9.64 C76.13,9.73 76.33,9.87 76.5,10.05 C76.67,10.22 76.8,10.43 76.9,10.68 C77,10.92 77.05,11.19 77.05,11.5 C77.05,11.8 77,12.07 76.9,12.32 C76.8,12.57 76.67,12.78 76.5,12.96 C76.33,13.13 76.13,13.27 75.9,13.36 C75.67,13.45 75.42,13.5 75.16,13.5 C74.89,13.5 74.64,13.45 74.41,13.36z  M76.71 14.87 C77.18,14.69 77.59,14.44 77.94,14.11 C78.28,13.78 78.55,13.4 78.75,12.96 C78.95,12.51 79.05,12.03 79.05,11.5 C79.05,10.97 78.95,10.49 78.75,10.05 C78.55,9.61 78.28,9.23 77.94,8.9 C77.59,8.57 77.18,8.31 76.71,8.13 C76.24,7.95 75.72,7.86 75.16,7.86 C74.6,7.86 74.08,7.95 73.61,8.13 C73.13,8.31 72.72,8.57 72.37,8.9 C72.02,9.23 71.75,9.61 71.56,10.05 C71.36,10.49 71.27,10.97 71.27,11.5 C71.27,12.03 71.36,12.51 71.56,12.95 C71.75,13.39 72.02,13.78 72.37,14.11 C72.72,14.44 73.13,14.69 73.61,14.87 C74.08,15.05 74.6,15.14 75.16,15.14 C75.72,15.14 76.24,15.05 76.71,14.87z "/><path id="_R_G_L_0_G_D_3_P_0" fill="#f5f5f5" fill-opacity="1" fill-rule="nonzero" d=" M69.62 14.8 C70.13,14.57 70.55,14.24 70.9,13.82 C70.9,13.82 69.64,12.68 69.64,12.68 C69.41,12.95 69.16,13.15 68.89,13.29 C68.62,13.43 68.32,13.5 67.99,13.5 C67.7,13.5 67.43,13.45 67.19,13.36 C66.96,13.27 66.75,13.13 66.58,12.96 C66.41,12.78 66.28,12.57 66.18,12.32 C66.08,12.07 66.04,11.8 66.04,11.5 C66.04,11.2 66.08,10.93 66.18,10.68 C66.28,10.43 66.41,10.22 66.58,10.05 C66.75,9.87 66.96,9.73 67.19,9.64 C67.43,9.55 67.7,9.5 67.99,9.5 C68.32,9.5 68.62,9.57 68.89,9.71 C69.16,9.85 69.41,10.05 69.64,10.32 C69.64,10.32 70.9,9.18 70.9,9.18 C70.55,8.75 70.13,8.43 69.62,8.2 C69.11,7.97 68.53,7.86 67.89,7.86 C67.33,7.86 66.82,7.95 66.35,8.13 C65.88,8.3 65.47,8.55 65.13,8.88 C64.79,9.21 64.52,9.59 64.33,10.04 C64.13,10.48 64.04,10.97 64.04,11.5 C64.04,12.03 64.13,12.52 64.33,12.97 C64.52,13.41 64.79,13.79 65.13,14.12 C65.47,14.45 65.88,14.7 66.35,14.88 C66.82,15.05 67.33,15.14 67.89,15.14 C68.53,15.14 69.11,15.03 69.62,14.8z "/><path id="_R_G_L_0_G_D_4_P_0" fill="#f5f5f5" fill-opacity="1" fill-rule="nonzero" d=" M59.64 9.53 C59.64,9.53 63.17,9.53 63.17,9.53 C63.17,9.53 63.17,8 63.17,8 C63.17,8 57.68,8 57.68,8 C57.68,8 57.68,15 57.68,15 C57.68,15 63.3,15 63.3,15 C63.3,15 63.3,13.47 63.3,13.47 C63.3,13.47 59.64,13.47 59.64,13.47 C59.64,13.47 59.64,9.53 59.64,9.53z  M59.5 12.19 C59.5,12.19 62.75,12.19 62.75,12.19 C62.75,12.19 62.75,10.71 62.75,10.71 C62.75,10.71 59.5,10.71 59.5,10.71 C59.5,10.71 59.5,12.19 59.5,12.19z "/><path id="_R_G_L_0_G_D_5_P_0" fill="#f5f5f5" fill-opacity="1" fill-rule="nonzero" d=" M49.97 15 C49.97,15 49.97,10.77 49.97,10.77 C49.97,10.77 49.59,10.77 49.59,10.77 C49.59,10.77 51.76,14.31 51.76,14.31 C51.76,14.31 52.64,14.31 52.64,14.31 C52.64,14.31 54.75,10.77 54.75,10.77 C54.75,10.77 54.44,10.77 54.44,10.77 C54.44,10.77 54.46,15 54.46,15 C54.46,15 56.28,15 56.28,15 C56.28,15 56.26,8 56.26,8 C56.26,8 54.63,8 54.63,8 C54.63,8 51.81,12.76 51.81,12.76 C51.81,12.76 52.67,12.76 52.67,12.76 C52.67,12.76 49.77,8 49.77,8 C49.77,8 48.14,8 48.14,8 C48.14,8 48.14,15 48.14,15 C48.14,15 49.97,15 49.97,15z "/><path id="_R_G_L_0_G_D_6_P_0" fill="#f5f5f5" fill-opacity="1" fill-rule="nonzero" d=" M43.38 9.53 C43.38,9.53 46.91,9.53 46.91,9.53 C46.91,9.53 46.91,8 46.91,8 C46.91,8 41.42,8 41.42,8 C41.42,8 41.42,15 41.42,15 C41.42,15 47.04,15 47.04,15 C47.04,15 47.04,13.47 47.04,13.47 C47.04,13.47 43.38,13.47 43.38,13.47 C43.38,13.47 43.38,9.53 43.38,9.53z  M43.24 12.19 C43.24,12.19 46.49,12.19 46.49,12.19 C46.49,12.19 46.49,10.71 46.49,10.71 C46.49,10.71 43.24,10.71 43.24,10.71 C43.24,10.71 43.24,12.19 43.24,12.19z "/><path id="_R_G_L_0_G_D_7_P_0" fill="#f5f5f5" fill-opacity="1" fill-rule="nonzero" d=" M33.71 15 C33.71,15 33.71,10.77 33.71,10.77 C33.71,10.77 33.33,10.77 33.33,10.77 C33.33,10.77 35.49,14.31 35.49,14.31 C35.49,14.31 36.38,14.31 36.38,14.31 C36.38,14.31 38.49,10.77 38.49,10.77 C38.49,10.77 38.17,10.77 38.17,10.77 C38.17,10.77 38.2,15 38.2,15 C38.2,15 40.02,15 40.02,15 C40.02,15 39.99,8 39.99,8 C39.99,8 38.37,8 38.37,8 C38.37,8 35.55,12.76 35.55,12.76 C35.55,12.76 36.41,12.76 36.41,12.76 C36.41,12.76 33.51,8 33.51,8 C33.51,8 31.88,8 31.88,8 C31.88,8 31.88,15 31.88,15 C31.88,15 33.71,15 33.71,15z "/><path id="_R_G_L_0_G_D_8_P_0" fill="#f5f5f5" fill-opacity="1" fill-rule="nonzero" d=" M22.69 9.58 C22.69,9.58 23.94,9.58 23.94,9.58 C24.33,9.58 24.68,9.65 24.98,9.81 C25.28,9.96 25.51,10.17 25.68,10.46 C25.84,10.75 25.93,11.09 25.93,11.5 C25.93,11.9 25.84,12.25 25.68,12.54 C25.51,12.83 25.28,13.05 24.98,13.2 C24.68,13.35 24.33,13.42 23.94,13.42 C23.94,13.42 22.69,13.42 22.69,13.42 C22.69,13.42 22.69,9.58 22.69,9.58z  M24.02 15 C24.79,15 25.47,14.86 26.06,14.57 C26.64,14.28 27.1,13.88 27.43,13.36 C27.76,12.83 27.93,12.21 27.93,11.5 C27.93,10.78 27.76,10.16 27.43,9.64 C27.1,9.12 26.64,8.72 26.06,8.43 C25.47,8.14 24.79,8 24.02,8 C24.02,8 20.71,8 20.71,8 C20.71,8 20.71,15 20.71,15 C20.71,15 24.02,15 24.02,15z "/><path id="_R_G_L_0_G_D_9_P_0" fill="#f5f5f5" fill-opacity="1" fill-rule="nonzero" d=" M15.95 9.53 C15.95,9.53 19.48,9.53 19.48,9.53 C19.48,9.53 19.48,8 19.48,8 C19.48,8 13.99,8 13.99,8 C13.99,8 13.99,15 13.99,15 C13.99,15 19.61,15 19.61,15 C19.61,15 19.61,13.47 19.61,13.47 C19.61,13.47 15.95,13.47 15.95,13.47 C15.95,13.47 15.95,9.53 15.95,9.53z  M15.81 12.19 C15.81,12.19 19.06,12.19 19.06,12.19 C19.06,12.19 19.06,10.71 19.06,10.71 C19.06,10.71 15.81,10.71 15.81,10.71 C15.81,10.71 15.81,12.19 15.81,12.19z "/><path id="_R_G_L_0_G_D_10_P_0" fill="#f5f5f5" fill-opacity="1" fill-rule="nonzero" d=" M11.83 14.8 C12.34,14.57 12.77,14.24 13.11,13.82 C13.11,13.82 11.85,12.68 11.85,12.68 C11.62,12.95 11.37,13.15 11.1,13.29 C10.83,13.43 10.53,13.5 10.2,13.5 C9.91,13.5 9.65,13.45 9.4,13.36 C9.16,13.27 8.96,13.13 8.79,12.96 C8.62,12.78 8.49,12.57 8.39,12.32 C8.29,12.07 8.24,11.8 8.24,11.5 C8.24,11.2 8.29,10.93 8.39,10.68 C8.49,10.43 8.62,10.22 8.79,10.05 C8.96,9.87 9.16,9.73 9.4,9.64 C9.65,9.55 9.91,9.5 10.2,9.5 C10.53,9.5 10.83,9.57 11.1,9.71 C11.37,9.85 11.62,10.05 11.85,10.32 C11.85,10.32 13.11,9.18 13.11,9.18 C12.77,8.75 12.34,8.43 11.83,8.2 C11.32,7.97 10.74,7.86 10.1,7.86 C9.54,7.86 9.03,7.95 8.56,8.13 C8.09,8.3 7.68,8.55 7.34,8.88 C7,9.21 6.73,9.59 6.54,10.04 C6.34,10.48 6.25,10.97 6.25,11.5 C6.25,12.03 6.34,12.52 6.54,12.97 C6.73,13.41 7,13.79 7.34,14.12 C7.68,14.45 8.09,14.7 8.56,14.88 C9.03,15.05 9.54,15.14 10.1,15.14 C10.74,15.14 11.32,15.03 11.83,14.8z "/><path id="_R_G_L_0_G_D_11_P_0" fill="#f5f5f5" fill-opacity="1" fill-rule="nonzero" d=" M0.49 15 C0.49,15 0.49,10.34 0.49,10.34 C0.49,10.34 -0.28,10.34 -0.28,10.34 C-0.28,10.34 3.58,15 3.58,15 C3.58,15 5.21,15 5.21,15 C5.21,15 5.21,8 5.21,8 C5.21,8 3.27,8 3.27,8 C3.27,8 3.27,12.66 3.27,12.66 C3.27,12.66 4.04,12.66 4.04,12.66 C4.04,12.66 0.18,8 0.18,8 C0.18,8 -1.45,8 -1.45,8 C-1.45,8 -1.45,15 -1.45,15 C-1.45,15 0.49,15 0.49,15z "/><path id="_R_G_L_0_G_D_12_P_0" fill="#f5f5f5" fill-opacity="1" fill-rule="nonzero" d=" M-4.03 13.64 C-4.03,13.64 -4.53,12.18 -4.53,12.18 C-4.53,12.18 -7.95,12.18 -7.95,12.18 C-7.95,12.18 -8.46,13.64 -8.46,13.64 C-8.46,13.64 -4.03,13.64 -4.03,13.64z  M-8.13 15 C-8.13,15 -5.71,8.97 -5.71,8.97 C-5.71,8.97 -6.49,8.97 -6.49,8.97 C-6.49,8.97 -4.07,15 -4.07,15 C-4.07,15 -2.01,15 -2.01,15 C-2.01,15 -5.11,8 -5.11,8 C-5.11,8 -7.06,8 -7.06,8 C-7.06,8 -10.15,15 -10.15,15 C-10.15,15 -8.13,15 -8.13,15z "/><path id="_R_G_L_0_G_D_13_P_0" fill="#f5f5f5" fill-opacity="1" fill-rule="nonzero" d=" M-12.48 15 C-12.48,15 -9.48,8 -9.48,8 C-9.48,8 -11.44,8 -11.44,8 C-11.44,8 -14.02,14.06 -14.02,14.06 C-14.02,14.06 -12.76,14.06 -12.76,14.06 C-12.76,14.06 -15.28,8 -15.28,8 C-15.28,8 -17.42,8 -17.42,8 C-17.42,8 -14.43,15 -14.43,15 C-14.43,15 -12.48,15 -12.48,15z "/><path id="_R_G_L_0_G_D_14_P_0" fill="#f5f5f5" fill-opacity="1" fill-rule="nonzero" d=" M-22.62 9.58 C-22.62,9.58 -21.37,9.58 -21.37,9.58 C-20.97,9.58 -20.63,9.65 -20.33,9.81 C-20.03,9.96 -19.8,10.17 -19.64,10.46 C-19.47,10.75 -19.39,11.09 -19.39,11.5 C-19.39,11.9 -19.47,12.25 -19.64,12.54 C-19.8,12.83 -20.03,13.05 -20.33,13.2 C-20.63,13.35 -20.97,13.42 -21.37,13.42 C-21.37,13.42 -22.62,13.42 -22.62,13.42 C-22.62,13.42 -22.62,9.58 -22.62,9.58z  M-21.29 15 C-20.52,15 -19.84,14.86 -19.25,14.57 C-18.67,14.28 -18.21,13.88 -17.88,13.36 C-17.55,12.83 -17.39,12.21 -17.39,11.5 C-17.39,10.78 -17.55,10.16 -17.88,9.64 C-18.21,9.12 -18.67,8.72 -19.25,8.43 C-19.84,8.14 -20.52,8 -21.29,8 C-21.29,8 -24.6,8 -24.6,8 C-24.6,8 -24.6,15 -24.6,15 C-24.6,15 -21.29,15 -21.29,15z "/><path id="_R_G_L_0_G_D_15_P_0" fill="#f5f5f5" fill-opacity="1" fill-rule="nonzero" d=" M-27.17 13.64 C-27.17,13.64 -27.68,12.18 -27.68,12.18 C-27.68,12.18 -31.1,12.18 -31.1,12.18 C-31.1,12.18 -31.61,13.64 -31.61,13.64 C-31.61,13.64 -27.17,13.64 -27.17,13.64z  M-31.28 15 C-31.28,15 -28.86,8.97 -28.86,8.97 C-28.86,8.97 -29.64,8.97 -29.64,8.97 C-29.64,8.97 -27.22,15 -27.22,15 C-27.22,15 -25.16,15 -25.16,15 C-25.16,15 -28.26,8 -28.26,8 C-28.26,8 -30.21,8 -30.21,8 C-30.21,8 -33.3,15 -33.3,15 C-33.3,15 -31.28,15 -31.28,15z "/><path id="_R_G_L_0_G_D_16_P_0" fill="#f5f5f5" fill-opacity="1" fill-rule="nonzero" d=" M-38.26 15 C-38.26,15 -38.26,9.57 -38.26,9.57 C-38.26,9.57 -36.11,9.57 -36.11,9.57 C-36.11,9.57 -36.11,8 -36.11,8 C-36.11,8 -42.38,8 -42.38,8 C-42.38,8 -42.38,9.57 -42.38,9.57 C-42.38,9.57 -40.23,9.57 -40.23,9.57 C-40.23,9.57 -40.23,15 -40.23,15 C-40.23,15 -38.26,15 -38.26,15z "/><path id="_R_G_L_0_G_D_17_P_0" fill="#f5f5f5" fill-opacity="1" fill-rule="nonzero" d=" M-43.91 14.83 C-43.45,14.62 -43.11,14.35 -42.88,14.01 C-42.65,13.66 -42.53,13.29 -42.53,12.88 C-42.53,12.51 -42.61,12.21 -42.75,11.97 C-42.89,11.72 -43.08,11.53 -43.31,11.38 C-43.55,11.23 -43.81,11.11 -44.09,11.02 C-44.37,10.93 -44.66,10.85 -44.94,10.79 C-45.22,10.73 -45.48,10.67 -45.72,10.62 C-45.96,10.56 -46.15,10.49 -46.29,10.4 C-46.43,10.31 -46.5,10.18 -46.5,10.03 C-46.5,9.91 -46.47,9.8 -46.39,9.71 C-46.32,9.62 -46.2,9.54 -46.03,9.49 C-45.87,9.43 -45.65,9.4 -45.37,9.4 C-45.07,9.4 -44.75,9.45 -44.42,9.54 C-44.1,9.63 -43.77,9.76 -43.43,9.94 C-43.43,9.94 -42.82,8.47 -42.82,8.47 C-43.17,8.27 -43.57,8.12 -44.01,8.02 C-44.45,7.91 -44.9,7.86 -45.36,7.86 C-46.05,7.86 -46.62,7.96 -47.08,8.17 C-47.54,8.38 -47.89,8.65 -48.12,8.99 C-48.35,9.33 -48.46,9.71 -48.46,10.13 C-48.46,10.5 -48.39,10.81 -48.24,11.06 C-48.1,11.3 -47.91,11.5 -47.67,11.65 C-47.44,11.8 -47.18,11.92 -46.9,12.01 C-46.62,12.1 -46.33,12.18 -46.05,12.24 C-45.77,12.3 -45.51,12.36 -45.27,12.42 C-45.04,12.48 -44.85,12.56 -44.7,12.65 C-44.56,12.74 -44.48,12.87 -44.48,13.03 C-44.48,13.14 -44.52,13.24 -44.6,13.33 C-44.68,13.41 -44.8,13.48 -44.96,13.53 C-45.13,13.58 -45.35,13.6 -45.62,13.6 C-46.03,13.6 -46.44,13.54 -46.85,13.41 C-47.26,13.27 -47.62,13.11 -47.93,12.91 C-47.93,12.91 -48.58,14.37 -48.58,14.37 C-48.25,14.6 -47.82,14.78 -47.29,14.93 C-46.76,15.07 -46.21,15.14 -45.63,15.14 C-44.94,15.14 -44.37,15.04 -43.91,14.83z "/><path id="_R_G_L_0_G_D_18_P_0" fill="#f5f5f5" fill-opacity="1" fill-rule="nonzero" d=" M-53.77 13.36 C-54,13.27 -54.2,13.13 -54.37,12.96 C-54.54,12.78 -54.67,12.57 -54.77,12.32 C-54.87,12.07 -54.91,11.8 -54.91,11.5 C-54.91,11.19 -54.87,10.92 -54.77,10.68 C-54.67,10.43 -54.54,10.22 -54.37,10.05 C-54.2,9.87 -54,9.73 -53.77,9.64 C-53.54,9.55 -53.29,9.5 -53.02,9.5 C-52.76,9.5 -52.51,9.55 -52.28,9.64 C-52.05,9.73 -51.85,9.87 -51.68,10.05 C-51.51,10.22 -51.38,10.43 -51.28,10.68 C-51.18,10.92 -51.13,11.19 -51.13,11.5 C-51.13,11.8 -51.18,12.07 -51.28,12.32 C-51.38,12.57 -51.51,12.78 -51.68,12.96 C-51.85,13.13 -52.05,13.27 -52.28,13.36 C-52.51,13.45 -52.76,13.5 -53.02,13.5 C-53.29,13.5 -53.54,13.45 -53.77,13.36z  M-51.47 14.87 C-51,14.69 -50.59,14.44 -50.24,14.11 C-49.9,13.78 -49.63,13.4 -49.43,12.96 C-49.23,12.51 -49.13,12.03 -49.13,11.5 C-49.13,10.97 -49.23,10.49 -49.43,10.05 C-49.63,9.61 -49.9,9.23 -50.24,8.9 C-50.59,8.57 -51,8.31 -51.47,8.13 C-51.94,7.95 -52.46,7.86 -53.02,7.86 C-53.58,7.86 -54.1,7.95 -54.57,8.13 C-55.05,8.31 -55.46,8.57 -55.81,8.9 C-56.16,9.23 -56.43,9.61 -56.62,10.05 C-56.82,10.49 -56.91,10.97 -56.91,11.5 C-56.91,12.03 -56.82,12.51 -56.62,12.95 C-56.43,13.39 -56.16,13.78 -55.81,14.11 C-55.46,14.44 -55.05,14.69 -54.57,14.87 C-54.1,15.05 -53.58,15.14 -53.02,15.14 C-52.46,15.14 -51.94,15.05 -51.47,14.87z "/><path id="_R_G_L_0_G_D_19_P_0" fill="#f5f5f5" fill-opacity="1" fill-rule="nonzero" d=" M-64.26 15 C-64.26,15 -64.26,10.77 -64.26,10.77 C-64.26,10.77 -64.64,10.77 -64.64,10.77 C-64.64,10.77 -62.47,14.31 -62.47,14.31 C-62.47,14.31 -61.59,14.31 -61.59,14.31 C-61.59,14.31 -59.48,10.77 -59.48,10.77 C-59.48,10.77 -59.79,10.77 -59.79,10.77 C-59.79,10.77 -59.77,15 -59.77,15 C-59.77,15 -57.95,15 -57.95,15 C-57.95,15 -57.97,8 -57.97,8 C-57.97,8 -59.6,8 -59.6,8 C-59.6,8 -62.42,12.76 -62.42,12.76 C-62.42,12.76 -61.56,12.76 -61.56,12.76 C-61.56,12.76 -64.46,8 -64.46,8 C-64.46,8 -66.09,8 -66.09,8 C-66.09,8 -66.09,15 -66.09,15 C-66.09,15 -64.26,15 -64.26,15z "/><path id="_R_G_L_0_G_D_20_P_0" fill="#f5f5f5" fill-opacity="1" fill-rule="nonzero" d=" M-73.76 9.53 C-73.76,9.53 -70.23,9.53 -70.23,9.53 C-70.23,9.53 -70.23,8 -70.23,8 C-70.23,8 -75.72,8 -75.72,8 C-75.72,8 -75.72,15 -75.72,15 C-75.72,15 -70.1,15 -70.1,15 C-70.1,15 -70.1,13.47 -70.1,13.47 C-70.1,13.47 -73.76,13.47 -73.76,13.47 C-73.76,13.47 -73.76,9.53 -73.76,9.53z  M-73.9 12.19 C-73.9,12.19 -70.65,12.19 -70.65,12.19 C-70.65,12.19 -70.65,10.71 -70.65,10.71 C-70.65,10.71 -73.9,10.71 -73.9,10.71 C-73.9,10.71 -73.9,12.19 -73.9,12.19z "/><path id="_R_G_L_0_G_D_21_P_0" fill="#f5f5f5" fill-opacity="1" fill-rule="nonzero" d=" M-78.96 10.63 C-78.96,10.63 -81.94,10.63 -81.94,10.63 C-81.94,10.63 -81.94,12.27 -81.94,12.27 C-81.94,12.27 -78.96,12.27 -78.96,12.27 C-78.96,12.27 -78.96,10.63 -78.96,10.63z  M-81.81 8 C-81.81,8 -83.78,8 -83.78,8 C-83.78,8 -83.78,15 -83.78,15 C-83.78,15 -81.81,15 -81.81,15 C-81.81,15 -81.81,8 -81.81,8z  M-79.1 15 C-79.1,15 -77.12,15 -77.12,15 C-77.12,15 -77.12,8 -77.12,8 C-77.12,8 -79.1,8 -79.1,8 C-79.1,8 -79.1,15 -79.1,15z "/><path id="_R_G_L_0_G_D_22_P_0" fill="#f5f5f5" fill-opacity="1" fill-rule="nonzero" d=" M-86.66 15 C-86.66,15 -86.66,9.57 -86.66,9.57 C-86.66,9.57 -84.52,9.57 -84.52,9.57 C-84.52,9.57 -84.52,8 -84.52,8 C-84.52,8 -90.79,8 -90.79,8 C-90.79,8 -90.79,9.57 -90.79,9.57 C-90.79,9.57 -88.64,9.57 -88.64,9.57 C-88.64,9.57 -88.64,15 -88.64,15 C-88.64,15 -86.66,15 -86.66,15z "/><path id="_R_G_L_0_G_D_23_P_0" fill="#f5f5f5" fill-opacity="1" fill-rule="nonzero" d=" M67.23 0 C67.23,0 67.23,-13.98 67.23,-13.98 C67.23,-13.98 64.92,-13.98 64.92,-13.98 C64.92,-13.98 76.5,0 76.5,0 C76.5,0 81.39,0 81.39,0 C81.39,0 81.39,-21 81.39,-21 C81.39,-21 75.57,-21 75.57,-21 C75.57,-21 75.57,-7.02 75.57,-7.02 C75.57,-7.02 77.88,-7.02 77.88,-7.02 C77.88,-7.02 66.3,-21 66.3,-21 C66.3,-21 61.41,-21 61.41,-21 C61.41,-21 61.41,0 61.41,0 C61.41,0 67.23,0 67.23,0z "/><path id="_R_G_L_0_G_D_24_P_0" fill="#f5f5f5" fill-opacity="1" fill-rule="nonzero" d=" M45.15 -19.05 C45.15,-19.05 42.51,-16.32 42.51,-16.32 C42.51,-16.32 48.45,-16.32 48.45,-16.32 C49.69,-16.32 50.62,-16.05 51.23,-15.51 C51.84,-14.97 52.14,-14.21 52.14,-13.23 C52.14,-12.27 51.84,-11.52 51.23,-10.98 C50.62,-10.44 49.69,-10.17 48.45,-10.17 C48.45,-10.17 42.51,-10.17 42.51,-10.17 C42.51,-10.17 45.15,-7.44 45.15,-7.44 C45.15,-7.44 45.15,-19.05 45.15,-19.05z  M58.56 0 C58.56,0 53.31,-7.65 53.31,-7.65 C53.31,-7.65 46.98,-7.65 46.98,-7.65 C46.98,-7.65 52.2,0 52.2,0 C52.2,0 58.56,0 58.56,0z  M45.15 0 C45.15,0 45.15,-8.07 45.15,-8.07 C45.15,-8.07 42.51,-5.58 42.51,-5.58 C42.51,-5.58 48.81,-5.58 48.81,-5.58 C50.73,-5.58 52.39,-5.88 53.78,-6.49 C55.17,-7.1 56.24,-7.98 57,-9.13 C57.76,-10.28 58.14,-11.65 58.14,-13.23 C58.14,-14.83 57.76,-16.22 57,-17.39 C56.24,-18.55 55.17,-19.45 53.78,-20.07 C52.39,-20.69 50.73,-21 48.81,-21 C48.81,-21 39.21,-21 39.21,-21 C39.21,-21 39.21,0 39.21,0 C39.21,0 45.15,0 45.15,0z "/><path id="_R_G_L_0_G_D_25_P_0" fill="#f5f5f5" fill-opacity="1" fill-rule="nonzero" d=" M22.19 -4.92 C21.49,-5.2 20.9,-5.6 20.39,-6.13 C19.88,-6.66 19.47,-7.3 19.18,-8.04 C18.9,-8.78 18.75,-9.6 18.75,-10.5 C18.75,-11.42 18.9,-12.24 19.18,-12.97 C19.47,-13.7 19.88,-14.33 20.39,-14.86 C20.9,-15.39 21.49,-15.8 22.19,-16.08 C22.88,-16.36 23.62,-16.5 24.42,-16.5 C25.22,-16.5 25.97,-16.36 26.66,-16.08 C27.35,-15.8 27.94,-15.39 28.46,-14.86 C28.97,-14.33 29.37,-13.7 29.66,-12.97 C29.95,-12.24 30.09,-11.42 30.09,-10.5 C30.09,-9.6 29.95,-8.78 29.66,-8.04 C29.37,-7.3 28.97,-6.66 28.46,-6.13 C27.94,-5.6 27.35,-5.2 26.66,-4.92 C25.97,-4.64 25.22,-4.5 24.42,-4.5 C23.62,-4.5 22.88,-4.64 22.19,-4.92z  M29.09 -0.39 C30.5,-0.93 31.72,-1.69 32.76,-2.67 C33.8,-3.65 34.61,-4.8 35.21,-6.13 C35.8,-7.46 36.09,-8.92 36.09,-10.5 C36.09,-12.08 35.8,-13.53 35.21,-14.85 C34.61,-16.17 33.8,-17.33 32.76,-18.32 C31.72,-19.3 30.5,-20.07 29.09,-20.61 C27.68,-21.15 26.12,-21.42 24.42,-21.42 C22.74,-21.42 21.19,-21.15 19.77,-20.61 C18.35,-20.07 17.12,-19.3 16.07,-18.32 C15.02,-17.33 14.2,-16.17 13.62,-14.85 C13.04,-13.53 12.75,-12.08 12.75,-10.5 C12.75,-8.92 13.04,-7.47 13.62,-6.15 C14.2,-4.83 15.02,-3.67 16.07,-2.68 C17.12,-1.69 18.35,-0.93 19.77,-0.39 C21.19,0.15 22.74,0.42 24.42,0.42 C26.12,0.42 27.68,0.15 29.09,-0.39z "/><path id="_R_G_L_0_G_D_26_P_0" fill="#f5f5f5" fill-opacity="1" fill-rule="nonzero" d=" M7.82 -0.61 C9.35,-1.3 10.62,-2.28 11.64,-3.54 C11.64,-3.54 7.86,-6.96 7.86,-6.96 C7.18,-6.16 6.44,-5.55 5.63,-5.13 C4.81,-4.71 3.91,-4.5 2.91,-4.5 C2.05,-4.5 1.26,-4.64 0.54,-4.92 C-0.18,-5.2 -0.79,-5.6 -1.3,-6.13 C-1.81,-6.66 -2.21,-7.3 -2.5,-8.04 C-2.79,-8.78 -2.94,-9.6 -2.94,-10.5 C-2.94,-11.4 -2.79,-12.22 -2.5,-12.96 C-2.21,-13.7 -1.81,-14.33 -1.3,-14.86 C-0.79,-15.39 -0.18,-15.8 0.54,-16.08 C1.26,-16.36 2.05,-16.5 2.91,-16.5 C3.91,-16.5 4.81,-16.29 5.63,-15.87 C6.44,-15.45 7.18,-14.84 7.86,-14.04 C7.86,-14.04 11.64,-17.46 11.64,-17.46 C10.62,-18.74 9.35,-19.72 7.82,-20.4 C6.29,-21.08 4.55,-21.42 2.61,-21.42 C0.95,-21.42 -0.59,-21.15 -1.99,-20.62 C-3.4,-20.09 -4.62,-19.34 -5.65,-18.36 C-6.68,-17.38 -7.49,-16.23 -8.07,-14.89 C-8.65,-13.56 -8.94,-12.1 -8.94,-10.5 C-8.94,-8.9 -8.65,-7.43 -8.07,-6.1 C-7.49,-4.78 -6.68,-3.62 -5.65,-2.64 C-4.62,-1.66 -3.4,-0.9 -1.99,-0.37 C-0.59,0.16 0.95,0.42 2.61,0.42 C4.55,0.42 6.29,0.07 7.82,-0.61z "/><path id="_R_G_L_0_G_D_27_P_0" fill="#f5f5f5" fill-opacity="1" fill-rule="nonzero" d=" M-12.09 0 C-12.09,0 -12.09,-21 -12.09,-21 C-12.09,-21 -18.03,-21 -18.03,-21 C-18.03,-21 -18.03,0 -18.03,0 C-18.03,0 -12.09,0 -12.09,0z "/><path id="_R_G_L_0_G_D_28_P_0" fill="#f5f5f5" fill-opacity="1" fill-rule="nonzero" d=" M-26.67 0 C-26.67,0 -26.67,-16.29 -26.67,-16.29 C-26.67,-16.29 -20.25,-16.29 -20.25,-16.29 C-20.25,-16.29 -20.25,-21 -20.25,-21 C-20.25,-21 -39.06,-21 -39.06,-21 C-39.06,-21 -39.06,-16.29 -39.06,-16.29 C-39.06,-16.29 -32.61,-16.29 -32.61,-16.29 C-32.61,-16.29 -32.61,0 -32.61,0 C-32.61,0 -26.67,0 -26.67,0z "/><path id="_R_G_L_0_G_D_29_P_0" fill="#f5f5f5" fill-opacity="1" fill-rule="nonzero" d=" M-43.74 -4.08 C-43.74,-4.08 -45.27,-8.46 -45.27,-8.46 C-45.27,-8.46 -55.53,-8.46 -55.53,-8.46 C-55.53,-8.46 -57.06,-4.08 -57.06,-4.08 C-57.06,-4.08 -43.74,-4.08 -43.74,-4.08z  M-56.07 0 C-56.07,0 -48.81,-18.09 -48.81,-18.09 C-48.81,-18.09 -51.15,-18.09 -51.15,-18.09 C-51.15,-18.09 -43.89,0 -43.89,0 C-43.89,0 -37.71,0 -37.71,0 C-37.71,0 -47.01,-21 -47.01,-21 C-47.01,-21 -52.86,-21 -52.86,-21 C-52.86,-21 -62.13,0 -62.13,0 C-62.13,0 -56.07,0 -56.07,0z "/><path id="_R_G_L_0_G_D_30_P_0" fill="#f5f5f5" fill-opacity="1" fill-rule="nonzero" d=" M-65.71 -0.61 C-64.18,-1.3 -62.91,-2.28 -61.89,-3.54 C-61.89,-3.54 -65.67,-6.96 -65.67,-6.96 C-66.35,-6.16 -67.09,-5.55 -67.9,-5.13 C-68.71,-4.71 -69.62,-4.5 -70.62,-4.5 C-71.48,-4.5 -72.27,-4.64 -72.99,-4.92 C-73.71,-5.2 -74.32,-5.6 -74.83,-6.13 C-75.34,-6.66 -75.74,-7.3 -76.03,-8.04 C-76.32,-8.78 -76.47,-9.6 -76.47,-10.5 C-76.47,-11.4 -76.32,-12.22 -76.03,-12.96 C-75.74,-13.7 -75.34,-14.33 -74.83,-14.86 C-74.32,-15.39 -73.71,-15.8 -72.99,-16.08 C-72.27,-16.36 -71.48,-16.5 -70.62,-16.5 C-69.62,-16.5 -68.71,-16.29 -67.9,-15.87 C-67.09,-15.45 -66.35,-14.84 -65.67,-14.04 C-65.67,-14.04 -61.89,-17.46 -61.89,-17.46 C-62.91,-18.74 -64.18,-19.72 -65.71,-20.4 C-67.24,-21.08 -68.98,-21.42 -70.92,-21.42 C-72.58,-21.42 -74.12,-21.15 -75.53,-20.62 C-76.93,-20.09 -78.15,-19.34 -79.18,-18.36 C-80.21,-17.38 -81.02,-16.23 -81.6,-14.89 C-82.18,-13.56 -82.47,-12.1 -82.47,-10.5 C-82.47,-8.9 -82.18,-7.43 -81.6,-6.1 C-81.02,-4.78 -80.21,-3.62 -79.18,-2.64 C-78.15,-1.66 -76.93,-0.9 -75.53,-0.37 C-74.12,0.16 -72.58,0.42 -70.92,0.42 C-68.98,0.42 -67.24,0.07 -65.71,-0.61z "/></g></g><g id="time_group"/></svg>